<?xml version="1.0" encoding="UTF-8"?>
<svg xmlns="http://www.w3.org/2000/svg" xmlns:xlink="http://www.w3.org/1999/xlink" width="720" height="504" viewBox="0 0 720 504">
<defs>
<g>
<g id="glyph-0-0">
<path d="M 2.25 0 L 2.25 -11.25 L 11.25 -11.25 L 11.25 0 Z M 2.53125 -0.28125 L 10.96875 -0.28125 L 10.96875 -10.96875 L 2.53125 -10.96875 Z M 2.53125 -0.28125 "/>
</g>
<g id="glyph-0-1">
<path d="M 1.390625 0 L 1.390625 -12.890625 L 5.828125 -12.890625 C 6.828125 -12.890625 7.59375 -12.828125 8.125 -12.703125 C 8.863281 -12.535156 9.492188 -12.226562 10.015625 -11.78125 C 10.691406 -11.207031 11.195312 -10.472656 11.53125 -9.578125 C 11.875 -8.679688 12.046875 -7.660156 12.046875 -6.515625 C 12.046875 -5.535156 11.929688 -4.664062 11.703125 -3.90625 C 11.472656 -3.15625 11.175781 -2.53125 10.8125 -2.03125 C 10.457031 -1.539062 10.066406 -1.148438 9.640625 -0.859375 C 9.222656 -0.578125 8.710938 -0.363281 8.109375 -0.21875 C 7.503906 -0.0703125 6.8125 0 6.03125 0 Z M 3.09375 -1.515625 L 5.84375 -1.515625 C 6.695312 -1.515625 7.363281 -1.59375 7.84375 -1.75 C 8.320312 -1.914062 8.707031 -2.140625 9 -2.421875 C 9.40625 -2.828125 9.71875 -3.367188 9.9375 -4.046875 C 10.164062 -4.734375 10.28125 -5.566406 10.28125 -6.546875 C 10.28125 -7.890625 10.054688 -8.921875 9.609375 -9.640625 C 9.171875 -10.367188 8.632812 -10.851562 8 -11.09375 C 7.550781 -11.269531 6.816406 -11.359375 5.796875 -11.359375 L 3.09375 -11.359375 Z M 3.09375 -1.515625 "/>
</g>
<g id="glyph-0-2">
<path d="M 0.59375 -4.671875 C 0.59375 -6.398438 1.078125 -7.679688 2.046875 -8.515625 C 2.847656 -9.203125 3.820312 -9.546875 4.96875 -9.546875 C 6.257812 -9.546875 7.3125 -9.125 8.125 -8.28125 C 8.9375 -7.4375 9.34375 -6.273438 9.34375 -4.796875 C 9.34375 -3.597656 9.160156 -2.65625 8.796875 -1.96875 C 8.441406 -1.28125 7.921875 -0.742188 7.234375 -0.359375 C 6.546875 0.0234375 5.789062 0.21875 4.96875 0.21875 C 3.664062 0.21875 2.609375 -0.195312 1.796875 -1.03125 C 0.992188 -1.875 0.59375 -3.085938 0.59375 -4.671875 Z M 2.21875 -4.671875 C 2.21875 -3.472656 2.476562 -2.578125 3 -1.984375 C 3.519531 -1.390625 4.175781 -1.09375 4.96875 -1.09375 C 5.757812 -1.09375 6.414062 -1.390625 6.9375 -1.984375 C 7.457031 -2.585938 7.71875 -3.5 7.71875 -4.71875 C 7.71875 -5.875 7.453125 -6.75 6.921875 -7.34375 C 6.398438 -7.9375 5.75 -8.234375 4.96875 -8.234375 C 4.175781 -8.234375 3.519531 -7.9375 3 -7.34375 C 2.476562 -6.75 2.21875 -5.859375 2.21875 -4.671875 Z M 2.21875 -4.671875 "/>
</g>
<g id="glyph-0-3">
<path d="M 2.90625 0 L 0.046875 -9.328125 L 1.6875 -9.328125 L 3.171875 -3.953125 L 3.734375 -1.9375 C 3.753906 -2.039062 3.910156 -2.6875 4.203125 -3.875 L 5.703125 -9.328125 L 7.328125 -9.328125 L 8.71875 -3.921875 L 9.1875 -2.140625 L 9.71875 -3.9375 L 11.328125 -9.328125 L 12.859375 -9.328125 L 9.9375 0 L 8.296875 0 L 6.8125 -5.59375 L 6.453125 -7.1875 L 4.5625 0 Z M 2.90625 0 "/>
</g>
<g id="glyph-0-4">
<path d="M 1.1875 0 L 1.1875 -9.328125 L 2.609375 -9.328125 L 2.609375 -8 C 3.296875 -9.03125 4.285156 -9.546875 5.578125 -9.546875 C 6.140625 -9.546875 6.65625 -9.441406 7.125 -9.234375 C 7.601562 -9.035156 7.957031 -8.769531 8.1875 -8.4375 C 8.425781 -8.113281 8.59375 -7.726562 8.6875 -7.28125 C 8.738281 -6.988281 8.765625 -6.472656 8.765625 -5.734375 L 8.765625 0 L 7.1875 0 L 7.1875 -5.671875 C 7.1875 -6.316406 7.125 -6.800781 7 -7.125 C 6.882812 -7.445312 6.664062 -7.703125 6.34375 -7.890625 C 6.03125 -8.078125 5.664062 -8.171875 5.25 -8.171875 C 4.570312 -8.171875 3.988281 -7.957031 3.5 -7.53125 C 3.007812 -7.101562 2.765625 -6.289062 2.765625 -5.09375 L 2.765625 0 Z M 1.1875 0 "/>
</g>
<g id="glyph-0-5">
<path d="M 1.171875 0 L 1.171875 -9.328125 L 2.59375 -9.328125 L 2.59375 -7.921875 C 2.957031 -8.578125 3.289062 -9.007812 3.59375 -9.21875 C 3.90625 -9.4375 4.242188 -9.546875 4.609375 -9.546875 C 5.148438 -9.546875 5.691406 -9.375 6.234375 -9.03125 L 5.703125 -7.5625 C 5.304688 -7.789062 4.914062 -7.90625 4.53125 -7.90625 C 4.1875 -7.90625 3.875 -7.800781 3.59375 -7.59375 C 3.320312 -7.382812 3.128906 -7.097656 3.015625 -6.734375 C 2.835938 -6.171875 2.75 -5.554688 2.75 -4.890625 L 2.75 0 Z M 1.171875 0 "/>
</g>
<g id="glyph-0-6">
<path d="M 7.578125 -3 L 9.21875 -2.796875 C 8.957031 -1.847656 8.476562 -1.109375 7.78125 -0.578125 C 7.082031 -0.046875 6.191406 0.21875 5.109375 0.21875 C 3.742188 0.21875 2.660156 -0.203125 1.859375 -1.046875 C 1.054688 -1.890625 0.65625 -3.070312 0.65625 -4.59375 C 0.65625 -6.15625 1.054688 -7.367188 1.859375 -8.234375 C 2.671875 -9.109375 3.722656 -9.546875 5.015625 -9.546875 C 6.265625 -9.546875 7.285156 -9.117188 8.078125 -8.265625 C 8.867188 -7.421875 9.265625 -6.226562 9.265625 -4.6875 C 9.265625 -4.59375 9.257812 -4.453125 9.25 -4.265625 L 2.296875 -4.265625 C 2.347656 -3.234375 2.632812 -2.445312 3.15625 -1.90625 C 3.6875 -1.363281 4.335938 -1.09375 5.109375 -1.09375 C 5.691406 -1.09375 6.1875 -1.242188 6.59375 -1.546875 C 7.007812 -1.847656 7.335938 -2.332031 7.578125 -3 Z M 2.375 -5.5625 L 7.59375 -5.5625 C 7.519531 -6.34375 7.320312 -6.929688 7 -7.328125 C 6.488281 -7.941406 5.832031 -8.25 5.03125 -8.25 C 4.3125 -8.25 3.703125 -8.003906 3.203125 -7.515625 C 2.710938 -7.023438 2.4375 -6.375 2.375 -5.5625 Z M 2.375 -5.5625 "/>
</g>
<g id="glyph-0-7">
<path d="M 0.890625 0.78125 L 2.4375 1 C 2.5 1.476562 2.675781 1.828125 2.96875 2.046875 C 3.363281 2.335938 3.898438 2.484375 4.578125 2.484375 C 5.304688 2.484375 5.867188 2.332031 6.265625 2.03125 C 6.671875 1.738281 6.941406 1.332031 7.078125 0.8125 C 7.160156 0.488281 7.203125 -0.1875 7.203125 -1.21875 C 6.503906 -0.40625 5.640625 0 4.609375 0 C 3.328125 0 2.332031 -0.460938 1.625 -1.390625 C 0.925781 -2.316406 0.578125 -3.425781 0.578125 -4.71875 C 0.578125 -5.613281 0.738281 -6.4375 1.0625 -7.1875 C 1.382812 -7.9375 1.851562 -8.515625 2.46875 -8.921875 C 3.082031 -9.335938 3.800781 -9.546875 4.625 -9.546875 C 5.726562 -9.546875 6.632812 -9.097656 7.34375 -8.203125 L 7.34375 -9.328125 L 8.8125 -9.328125 L 8.8125 -1.265625 C 8.8125 0.191406 8.660156 1.222656 8.359375 1.828125 C 8.066406 2.429688 7.597656 2.90625 6.953125 3.25 C 6.316406 3.601562 5.53125 3.78125 4.59375 3.78125 C 3.476562 3.78125 2.578125 3.53125 1.890625 3.03125 C 1.203125 2.53125 0.867188 1.78125 0.890625 0.78125 Z M 2.203125 -4.828125 C 2.203125 -3.609375 2.445312 -2.71875 2.9375 -2.15625 C 3.425781 -1.59375 4.035156 -1.3125 4.765625 -1.3125 C 5.492188 -1.3125 6.101562 -1.585938 6.59375 -2.140625 C 7.082031 -2.703125 7.328125 -3.582031 7.328125 -4.78125 C 7.328125 -5.925781 7.070312 -6.785156 6.5625 -7.359375 C 6.0625 -7.941406 5.453125 -8.234375 4.734375 -8.234375 C 4.035156 -8.234375 3.4375 -7.945312 2.9375 -7.375 C 2.445312 -6.800781 2.203125 -5.953125 2.203125 -4.828125 Z M 2.203125 -4.828125 "/>
</g>
<g id="glyph-0-8">
<path d="M 7.296875 0 L 7.296875 -1.375 C 6.578125 -0.3125 5.59375 0.21875 4.34375 0.21875 C 3.789062 0.21875 3.273438 0.113281 2.796875 -0.09375 C 2.316406 -0.3125 1.960938 -0.578125 1.734375 -0.890625 C 1.503906 -1.210938 1.34375 -1.609375 1.25 -2.078125 C 1.1875 -2.390625 1.15625 -2.878906 1.15625 -3.546875 L 1.15625 -9.328125 L 2.734375 -9.328125 L 2.734375 -4.15625 C 2.734375 -3.332031 2.765625 -2.773438 2.828125 -2.484375 C 2.929688 -2.066406 3.144531 -1.738281 3.46875 -1.5 C 3.789062 -1.269531 4.1875 -1.15625 4.65625 -1.15625 C 5.132812 -1.15625 5.582031 -1.273438 6 -1.515625 C 6.414062 -1.753906 6.707031 -2.082031 6.875 -2.5 C 7.050781 -2.925781 7.140625 -3.535156 7.140625 -4.328125 L 7.140625 -9.328125 L 8.71875 -9.328125 L 8.71875 0 Z M 7.296875 0 "/>
</g>
<g id="glyph-0-9">
<path d="M 1.15625 0 L 1.15625 -12.890625 L 2.734375 -12.890625 L 2.734375 0 Z M 1.15625 0 "/>
</g>
<g id="glyph-0-10">
<path d="M 7.28125 -1.15625 C 6.695312 -0.65625 6.128906 -0.300781 5.578125 -0.09375 C 5.035156 0.113281 4.457031 0.21875 3.84375 0.21875 C 2.8125 0.21875 2.019531 -0.03125 1.46875 -0.53125 C 0.925781 -1.039062 0.65625 -1.6875 0.65625 -2.46875 C 0.65625 -2.914062 0.757812 -3.328125 0.96875 -3.703125 C 1.175781 -4.085938 1.445312 -4.394531 1.78125 -4.625 C 2.113281 -4.851562 2.492188 -5.023438 2.921875 -5.140625 C 3.234375 -5.222656 3.703125 -5.300781 4.328125 -5.375 C 5.597656 -5.53125 6.535156 -5.710938 7.140625 -5.921875 C 7.148438 -6.140625 7.15625 -6.28125 7.15625 -6.34375 C 7.15625 -6.976562 7.003906 -7.429688 6.703125 -7.703125 C 6.296875 -8.054688 5.695312 -8.234375 4.90625 -8.234375 C 4.15625 -8.234375 3.601562 -8.101562 3.25 -7.84375 C 2.894531 -7.582031 2.632812 -7.117188 2.46875 -6.453125 L 0.921875 -6.671875 C 1.066406 -7.335938 1.296875 -7.875 1.609375 -8.28125 C 1.929688 -8.6875 2.394531 -9 3 -9.21875 C 3.613281 -9.4375 4.328125 -9.546875 5.140625 -9.546875 C 5.929688 -9.546875 6.578125 -9.453125 7.078125 -9.265625 C 7.578125 -9.078125 7.941406 -8.835938 8.171875 -8.546875 C 8.410156 -8.265625 8.578125 -7.910156 8.671875 -7.484375 C 8.722656 -7.210938 8.75 -6.722656 8.75 -6.015625 L 8.75 -3.90625 C 8.75 -2.4375 8.78125 -1.503906 8.84375 -1.109375 C 8.914062 -0.722656 9.050781 -0.351562 9.25 0 L 7.59375 0 C 7.425781 -0.332031 7.320312 -0.71875 7.28125 -1.15625 Z M 7.140625 -4.6875 C 6.566406 -4.445312 5.707031 -4.25 4.5625 -4.09375 C 3.914062 -4 3.457031 -3.890625 3.1875 -3.765625 C 2.914062 -3.648438 2.707031 -3.476562 2.5625 -3.25 C 2.414062 -3.03125 2.34375 -2.78125 2.34375 -2.5 C 2.34375 -2.082031 2.5 -1.734375 2.8125 -1.453125 C 3.132812 -1.171875 3.601562 -1.03125 4.21875 -1.03125 C 4.832031 -1.03125 5.375 -1.160156 5.84375 -1.421875 C 6.320312 -1.691406 6.671875 -2.054688 6.890625 -2.515625 C 7.054688 -2.878906 7.140625 -3.410156 7.140625 -4.109375 Z M 7.140625 -4.6875 "/>
</g>
<g id="glyph-0-11">
<path d="M 4.640625 -1.421875 L 4.875 -0.015625 C 4.425781 0.078125 4.023438 0.125 3.671875 0.125 C 3.097656 0.125 2.648438 0.0351562 2.328125 -0.140625 C 2.015625 -0.328125 1.796875 -0.566406 1.671875 -0.859375 C 1.546875 -1.160156 1.484375 -1.785156 1.484375 -2.734375 L 1.484375 -8.109375 L 0.3125 -8.109375 L 0.3125 -9.328125 L 1.484375 -9.328125 L 1.484375 -11.640625 L 3.046875 -12.59375 L 3.046875 -9.328125 L 4.640625 -9.328125 L 4.640625 -8.109375 L 3.046875 -8.109375 L 3.046875 -2.640625 C 3.046875 -2.191406 3.070312 -1.898438 3.125 -1.765625 C 3.1875 -1.640625 3.28125 -1.539062 3.40625 -1.46875 C 3.53125 -1.394531 3.710938 -1.359375 3.953125 -1.359375 C 4.117188 -1.359375 4.347656 -1.378906 4.640625 -1.421875 Z M 4.640625 -1.421875 "/>
</g>
<g id="glyph-0-12">
<path d="M 7.25 0 L 7.25 -1.171875 C 6.65625 -0.242188 5.78125 0.21875 4.625 0.21875 C 3.882812 0.21875 3.203125 0.015625 2.578125 -0.390625 C 1.953125 -0.804688 1.46875 -1.378906 1.125 -2.109375 C 0.78125 -2.847656 0.609375 -3.695312 0.609375 -4.65625 C 0.609375 -5.59375 0.765625 -6.4375 1.078125 -7.1875 C 1.390625 -7.945312 1.851562 -8.53125 2.46875 -8.9375 C 3.09375 -9.34375 3.789062 -9.546875 4.5625 -9.546875 C 5.125 -9.546875 5.625 -9.425781 6.0625 -9.1875 C 6.5 -8.945312 6.859375 -8.640625 7.140625 -8.265625 L 7.140625 -12.890625 L 8.703125 -12.890625 L 8.703125 0 Z M 2.234375 -4.65625 C 2.234375 -3.457031 2.484375 -2.5625 2.984375 -1.96875 C 3.492188 -1.382812 4.09375 -1.09375 4.78125 -1.09375 C 5.46875 -1.09375 6.050781 -1.375 6.53125 -1.9375 C 7.019531 -2.5 7.265625 -3.363281 7.265625 -4.53125 C 7.265625 -5.800781 7.019531 -6.734375 6.53125 -7.328125 C 6.039062 -7.929688 5.4375 -8.234375 4.71875 -8.234375 C 4.007812 -8.234375 3.414062 -7.945312 2.9375 -7.375 C 2.46875 -6.800781 2.234375 -5.894531 2.234375 -4.65625 Z M 2.234375 -4.65625 "/>
</g>
<g id="glyph-0-13">
</g>
<g id="glyph-0-14">
<path d="M 0.546875 -2.78125 L 2.125 -3.03125 C 2.207031 -2.40625 2.445312 -1.925781 2.84375 -1.59375 C 3.25 -1.257812 3.8125 -1.09375 4.53125 -1.09375 C 5.257812 -1.09375 5.800781 -1.238281 6.15625 -1.53125 C 6.507812 -1.832031 6.6875 -2.179688 6.6875 -2.578125 C 6.6875 -2.929688 6.53125 -3.210938 6.21875 -3.421875 C 6 -3.554688 5.457031 -3.734375 4.59375 -3.953125 C 3.4375 -4.242188 2.632812 -4.492188 2.1875 -4.703125 C 1.738281 -4.921875 1.394531 -5.21875 1.15625 -5.59375 C 0.925781 -5.976562 0.8125 -6.398438 0.8125 -6.859375 C 0.8125 -7.273438 0.90625 -7.660156 1.09375 -8.015625 C 1.289062 -8.367188 1.550781 -8.660156 1.875 -8.890625 C 2.125 -9.078125 2.460938 -9.234375 2.890625 -9.359375 C 3.316406 -9.484375 3.769531 -9.546875 4.25 -9.546875 C 4.988281 -9.546875 5.632812 -9.4375 6.1875 -9.21875 C 6.738281 -9.007812 7.144531 -8.722656 7.40625 -8.359375 C 7.675781 -8.003906 7.859375 -7.523438 7.953125 -6.921875 L 6.40625 -6.71875 C 6.332031 -7.195312 6.128906 -7.570312 5.796875 -7.84375 C 5.460938 -8.113281 4.988281 -8.25 4.375 -8.25 C 3.644531 -8.25 3.125 -8.128906 2.8125 -7.890625 C 2.5 -7.648438 2.34375 -7.367188 2.34375 -7.046875 C 2.34375 -6.835938 2.410156 -6.648438 2.546875 -6.484375 C 2.671875 -6.316406 2.867188 -6.175781 3.140625 -6.0625 C 3.304688 -6.007812 3.773438 -5.875 4.546875 -5.65625 C 5.660156 -5.363281 6.4375 -5.117188 6.875 -4.921875 C 7.320312 -4.734375 7.671875 -4.457031 7.921875 -4.09375 C 8.179688 -3.726562 8.3125 -3.28125 8.3125 -2.75 C 8.3125 -2.21875 8.15625 -1.71875 7.84375 -1.25 C 7.539062 -0.78125 7.097656 -0.414062 6.515625 -0.15625 C 5.929688 0.09375 5.273438 0.21875 4.546875 0.21875 C 3.328125 0.21875 2.398438 -0.03125 1.765625 -0.53125 C 1.128906 -1.039062 0.722656 -1.789062 0.546875 -2.78125 Z M 0.546875 -2.78125 "/>
</g>
<g id="glyph-0-15">
<path d="M 1.203125 -11.0625 L 1.203125 -12.890625 L 2.78125 -12.890625 L 2.78125 -11.0625 Z M 1.203125 0 L 1.203125 -9.328125 L 2.78125 -9.328125 L 2.78125 0 Z M 1.203125 0 "/>
</g>
<g id="glyph-0-16">
<path d="M 1.109375 3.59375 L 0.9375 2.109375 C 1.28125 2.203125 1.582031 2.25 1.84375 2.25 C 2.195312 2.25 2.476562 2.191406 2.6875 2.078125 C 2.894531 1.960938 3.066406 1.796875 3.203125 1.578125 C 3.304688 1.421875 3.46875 1.03125 3.6875 0.40625 C 3.71875 0.3125 3.765625 0.179688 3.828125 0.015625 L 0.296875 -9.328125 L 2 -9.328125 L 3.9375 -3.921875 C 4.1875 -3.242188 4.410156 -2.523438 4.609375 -1.765625 C 4.796875 -2.492188 5.015625 -3.203125 5.265625 -3.890625 L 7.265625 -9.328125 L 8.84375 -9.328125 L 5.296875 0.15625 C 4.910156 1.1875 4.613281 1.894531 4.40625 2.28125 C 4.125 2.800781 3.800781 3.179688 3.4375 3.421875 C 3.070312 3.660156 2.640625 3.78125 2.140625 3.78125 C 1.828125 3.78125 1.484375 3.71875 1.109375 3.59375 Z M 1.109375 3.59375 "/>
</g>
<g id="glyph-0-17">
<path d="M 6.703125 0 L 5.125 0 L 5.125 -10.078125 C 4.738281 -9.710938 4.238281 -9.347656 3.625 -8.984375 C 3.007812 -8.628906 2.453125 -8.359375 1.953125 -8.171875 L 1.953125 -9.703125 C 2.835938 -10.117188 3.613281 -10.625 4.28125 -11.21875 C 4.945312 -11.8125 5.414062 -12.382812 5.6875 -12.9375 L 6.703125 -12.9375 Z M 6.703125 0 "/>
</g>
<g id="glyph-0-18">
<path d="M 0.75 -6.359375 C 0.75 -7.878906 0.90625 -9.101562 1.21875 -10.03125 C 1.53125 -10.957031 1.992188 -11.671875 2.609375 -12.171875 C 3.234375 -12.679688 4.015625 -12.9375 4.953125 -12.9375 C 5.640625 -12.9375 6.242188 -12.796875 6.765625 -12.515625 C 7.285156 -12.242188 7.710938 -11.84375 8.046875 -11.3125 C 8.390625 -10.789062 8.660156 -10.148438 8.859375 -9.390625 C 9.054688 -8.640625 9.15625 -7.628906 9.15625 -6.359375 C 9.15625 -4.847656 9 -3.625 8.6875 -2.6875 C 8.375 -1.757812 7.90625 -1.039062 7.28125 -0.53125 C 6.664062 -0.03125 5.890625 0.21875 4.953125 0.21875 C 3.703125 0.21875 2.722656 -0.222656 2.015625 -1.109375 C 1.171875 -2.179688 0.75 -3.929688 0.75 -6.359375 Z M 2.375 -6.359375 C 2.375 -4.242188 2.617188 -2.832031 3.109375 -2.125 C 3.609375 -1.425781 4.222656 -1.078125 4.953125 -1.078125 C 5.671875 -1.078125 6.28125 -1.425781 6.78125 -2.125 C 7.28125 -2.832031 7.53125 -4.242188 7.53125 -6.359375 C 7.53125 -8.472656 7.28125 -9.878906 6.78125 -10.578125 C 6.28125 -11.273438 5.664062 -11.625 4.9375 -11.625 C 4.207031 -11.625 3.625 -11.316406 3.1875 -10.703125 C 2.644531 -9.921875 2.375 -8.472656 2.375 -6.359375 Z M 2.375 -6.359375 "/>
</g>
<g id="glyph-0-19">
<path d="M 1.1875 0 L 1.1875 -12.890625 L 2.765625 -12.890625 L 2.765625 -8.265625 C 3.503906 -9.117188 4.4375 -9.546875 5.5625 -9.546875 C 6.25 -9.546875 6.847656 -9.410156 7.359375 -9.140625 C 7.867188 -8.867188 8.234375 -8.488281 8.453125 -8 C 8.679688 -7.519531 8.796875 -6.828125 8.796875 -5.921875 L 8.796875 0 L 7.203125 0 L 7.203125 -5.921875 C 7.203125 -6.710938 7.03125 -7.285156 6.6875 -7.640625 C 6.34375 -8.003906 5.859375 -8.1875 5.234375 -8.1875 C 4.765625 -8.1875 4.320312 -8.0625 3.90625 -7.8125 C 3.5 -7.570312 3.207031 -7.242188 3.03125 -6.828125 C 2.851562 -6.410156 2.765625 -5.835938 2.765625 -5.109375 L 2.765625 0 Z M 1.1875 0 "/>
</g>
<g id="glyph-1-0">
<path d="M 1.5 0 L 1.5 -7.5 L 7.5 -7.5 L 7.5 0 Z M 1.6875 -0.1875 L 7.3125 -0.1875 L 7.3125 -7.3125 L 1.6875 -7.3125 Z M 1.6875 -0.1875 "/>
</g>
<g id="glyph-1-1">
<path d="M 0.921875 0 L 0.921875 -8.59375 L 3.890625 -8.59375 C 4.554688 -8.59375 5.066406 -8.550781 5.421875 -8.46875 C 5.910156 -8.351562 6.328125 -8.148438 6.671875 -7.859375 C 7.128906 -7.472656 7.46875 -6.976562 7.6875 -6.375 C 7.914062 -5.78125 8.03125 -5.101562 8.03125 -4.34375 C 8.03125 -3.6875 7.953125 -3.109375 7.796875 -2.609375 C 7.648438 -2.109375 7.457031 -1.691406 7.21875 -1.359375 C 6.976562 -1.023438 6.710938 -0.765625 6.421875 -0.578125 C 6.140625 -0.390625 5.800781 -0.242188 5.40625 -0.140625 C 5.007812 -0.046875 4.550781 0 4.03125 0 Z M 2.0625 -1.015625 L 3.890625 -1.015625 C 4.460938 -1.015625 4.910156 -1.066406 5.234375 -1.171875 C 5.554688 -1.273438 5.8125 -1.425781 6 -1.625 C 6.269531 -1.882812 6.476562 -2.242188 6.625 -2.703125 C 6.78125 -3.160156 6.859375 -3.710938 6.859375 -4.359375 C 6.859375 -5.253906 6.707031 -5.941406 6.40625 -6.421875 C 6.113281 -6.910156 5.757812 -7.238281 5.34375 -7.40625 C 5.03125 -7.519531 4.539062 -7.578125 3.875 -7.578125 L 2.0625 -7.578125 Z M 2.0625 -1.015625 "/>
</g>
<g id="glyph-1-2">
<path d="M 1.765625 0 L 0.78125 0 L 0.78125 -8.59375 L 1.84375 -8.59375 L 1.84375 -5.53125 C 2.289062 -6.082031 2.859375 -6.359375 3.546875 -6.359375 C 3.929688 -6.359375 4.289062 -6.28125 4.625 -6.125 C 4.96875 -5.976562 5.25 -5.765625 5.46875 -5.484375 C 5.695312 -5.203125 5.875 -4.863281 6 -4.46875 C 6.125 -4.070312 6.1875 -3.648438 6.1875 -3.203125 C 6.1875 -2.140625 5.921875 -1.316406 5.390625 -0.734375 C 4.859375 -0.148438 4.226562 0.140625 3.5 0.140625 C 2.757812 0.140625 2.179688 -0.164062 1.765625 -0.78125 Z M 1.75 -3.15625 C 1.75 -2.414062 1.851562 -1.878906 2.0625 -1.546875 C 2.394531 -1.003906 2.84375 -0.734375 3.40625 -0.734375 C 3.863281 -0.734375 4.257812 -0.929688 4.59375 -1.328125 C 4.9375 -1.722656 5.109375 -2.320312 5.109375 -3.125 C 5.109375 -3.9375 4.945312 -4.535156 4.625 -4.921875 C 4.300781 -5.304688 3.910156 -5.5 3.453125 -5.5 C 2.992188 -5.5 2.59375 -5.296875 2.25 -4.890625 C 1.914062 -4.492188 1.75 -3.914062 1.75 -3.15625 Z M 1.75 -3.15625 "/>
</g>
<g id="glyph-1-3">
<path d="M 0.796875 -7.375 L 0.796875 -8.59375 L 1.859375 -8.59375 L 1.859375 -7.375 Z M 0.796875 0 L 0.796875 -6.21875 L 1.859375 -6.21875 L 1.859375 0 Z M 0.796875 0 "/>
</g>
<g id="glyph-1-4">
<path d="M 0.796875 2.390625 L 0.796875 -6.21875 L 1.75 -6.21875 L 1.75 -5.421875 C 1.976562 -5.734375 2.234375 -5.96875 2.515625 -6.125 C 2.804688 -6.28125 3.15625 -6.359375 3.5625 -6.359375 C 4.09375 -6.359375 4.5625 -6.222656 4.96875 -5.953125 C 5.375 -5.679688 5.675781 -5.296875 5.875 -4.796875 C 6.082031 -4.296875 6.1875 -3.75 6.1875 -3.15625 C 6.1875 -2.519531 6.070312 -1.945312 5.84375 -1.4375 C 5.625 -0.925781 5.296875 -0.535156 4.859375 -0.265625 C 4.421875 0.00390625 3.960938 0.140625 3.484375 0.140625 C 3.128906 0.140625 2.8125 0.0664062 2.53125 -0.078125 C 2.25 -0.234375 2.019531 -0.421875 1.84375 -0.640625 L 1.84375 2.390625 Z M 1.75 -3.078125 C 1.75 -2.273438 1.910156 -1.679688 2.234375 -1.296875 C 2.554688 -0.921875 2.945312 -0.734375 3.40625 -0.734375 C 3.875 -0.734375 4.273438 -0.929688 4.609375 -1.328125 C 4.941406 -1.722656 5.109375 -2.335938 5.109375 -3.171875 C 5.109375 -3.960938 4.945312 -4.550781 4.625 -4.9375 C 4.300781 -5.332031 3.910156 -5.53125 3.453125 -5.53125 C 3.003906 -5.53125 2.609375 -5.320312 2.265625 -4.90625 C 1.921875 -4.488281 1.75 -3.878906 1.75 -3.078125 Z M 1.75 -3.078125 "/>
</g>
<g id="glyph-1-5">
<path d="M 4.46875 0 L 3.421875 0 L 3.421875 -6.71875 C 3.160156 -6.476562 2.820312 -6.234375 2.40625 -5.984375 C 2 -5.742188 1.632812 -5.566406 1.3125 -5.453125 L 1.3125 -6.46875 C 1.894531 -6.75 2.40625 -7.082031 2.84375 -7.46875 C 3.289062 -7.863281 3.609375 -8.25 3.796875 -8.625 L 4.46875 -8.625 Z M 4.46875 0 "/>
</g>
<g id="glyph-1-6">
<path d="M 0.796875 0 L 0.796875 -6.21875 L 1.734375 -6.21875 L 1.734375 -5.34375 C 1.929688 -5.65625 2.191406 -5.898438 2.515625 -6.078125 C 2.835938 -6.265625 3.207031 -6.359375 3.625 -6.359375 C 4.082031 -6.359375 4.457031 -6.265625 4.75 -6.078125 C 5.050781 -5.890625 5.257812 -5.625 5.375 -5.28125 C 5.875 -6 6.515625 -6.359375 7.296875 -6.359375 C 7.921875 -6.359375 8.394531 -6.1875 8.71875 -5.84375 C 9.050781 -5.507812 9.21875 -4.984375 9.21875 -4.265625 L 9.21875 0 L 8.171875 0 L 8.171875 -3.921875 C 8.171875 -4.335938 8.132812 -4.640625 8.0625 -4.828125 C 8 -5.015625 7.878906 -5.164062 7.703125 -5.28125 C 7.523438 -5.394531 7.3125 -5.453125 7.0625 -5.453125 C 6.625 -5.453125 6.257812 -5.304688 5.96875 -5.015625 C 5.6875 -4.722656 5.546875 -4.253906 5.546875 -3.609375 L 5.546875 0 L 4.484375 0 L 4.484375 -4.046875 C 4.484375 -4.515625 4.394531 -4.863281 4.21875 -5.09375 C 4.050781 -5.332031 3.773438 -5.453125 3.390625 -5.453125 C 3.085938 -5.453125 2.8125 -5.375 2.5625 -5.21875 C 2.3125 -5.0625 2.128906 -4.832031 2.015625 -4.53125 C 1.898438 -4.226562 1.84375 -3.796875 1.84375 -3.234375 L 1.84375 0 Z M 0.796875 0 "/>
</g>
<g id="glyph-1-7">
<path d="M 0.375 -1.859375 L 1.40625 -2.015625 C 1.46875 -1.597656 1.628906 -1.28125 1.890625 -1.0625 C 2.160156 -0.84375 2.539062 -0.734375 3.03125 -0.734375 C 3.507812 -0.734375 3.863281 -0.828125 4.09375 -1.015625 C 4.332031 -1.210938 4.453125 -1.445312 4.453125 -1.71875 C 4.453125 -1.957031 4.347656 -2.144531 4.140625 -2.28125 C 3.992188 -2.375 3.632812 -2.492188 3.0625 -2.640625 C 2.289062 -2.835938 1.753906 -3.003906 1.453125 -3.140625 C 1.160156 -3.285156 0.9375 -3.484375 0.78125 -3.734375 C 0.625 -3.984375 0.546875 -4.265625 0.546875 -4.578125 C 0.546875 -4.847656 0.609375 -5.101562 0.734375 -5.34375 C 0.859375 -5.582031 1.03125 -5.78125 1.25 -5.9375 C 1.414062 -6.050781 1.640625 -6.148438 1.921875 -6.234375 C 2.203125 -6.316406 2.507812 -6.359375 2.84375 -6.359375 C 3.320312 -6.359375 3.742188 -6.285156 4.109375 -6.140625 C 4.484375 -6.003906 4.757812 -5.816406 4.9375 -5.578125 C 5.113281 -5.335938 5.234375 -5.019531 5.296875 -4.625 L 4.265625 -4.484375 C 4.222656 -4.796875 4.085938 -5.039062 3.859375 -5.21875 C 3.640625 -5.40625 3.320312 -5.5 2.90625 -5.5 C 2.425781 -5.5 2.082031 -5.414062 1.875 -5.25 C 1.664062 -5.09375 1.5625 -4.90625 1.5625 -4.6875 C 1.5625 -4.550781 1.601562 -4.429688 1.6875 -4.328125 C 1.78125 -4.210938 1.914062 -4.117188 2.09375 -4.046875 C 2.195312 -4.003906 2.507812 -3.914062 3.03125 -3.78125 C 3.78125 -3.570312 4.300781 -3.40625 4.59375 -3.28125 C 4.882812 -3.15625 5.113281 -2.972656 5.28125 -2.734375 C 5.445312 -2.492188 5.53125 -2.191406 5.53125 -1.828125 C 5.53125 -1.472656 5.425781 -1.140625 5.21875 -0.828125 C 5.019531 -0.523438 4.726562 -0.285156 4.34375 -0.109375 C 3.957031 0.0546875 3.519531 0.140625 3.03125 0.140625 C 2.21875 0.140625 1.597656 -0.0234375 1.171875 -0.359375 C 0.753906 -0.703125 0.488281 -1.203125 0.375 -1.859375 Z M 0.375 -1.859375 "/>
</g>
<g id="glyph-1-8">
<path d="M 3.09375 -0.9375 L 3.25 -0.015625 C 2.945312 0.046875 2.679688 0.078125 2.453125 0.078125 C 2.066406 0.078125 1.769531 0.0195312 1.5625 -0.09375 C 1.351562 -0.21875 1.203125 -0.378906 1.109375 -0.578125 C 1.023438 -0.773438 0.984375 -1.191406 0.984375 -1.828125 L 0.984375 -5.40625 L 0.21875 -5.40625 L 0.21875 -6.21875 L 0.984375 -6.21875 L 0.984375 -7.765625 L 2.03125 -8.390625 L 2.03125 -6.21875 L 3.09375 -6.21875 L 3.09375 -5.40625 L 2.03125 -5.40625 L 2.03125 -1.765625 C 2.03125 -1.460938 2.046875 -1.269531 2.078125 -1.1875 C 2.117188 -1.101562 2.179688 -1.035156 2.265625 -0.984375 C 2.347656 -0.929688 2.46875 -0.90625 2.625 -0.90625 C 2.75 -0.90625 2.90625 -0.914062 3.09375 -0.9375 Z M 3.09375 -0.9375 "/>
</g>
<g id="glyph-1-9">
<path d="M 6.046875 -1.015625 L 6.046875 0 L 0.359375 0 C 0.359375 -0.25 0.398438 -0.492188 0.484375 -0.734375 C 0.628906 -1.117188 0.859375 -1.5 1.171875 -1.875 C 1.492188 -2.25 1.957031 -2.679688 2.5625 -3.171875 C 3.5 -3.941406 4.128906 -4.550781 4.453125 -5 C 4.785156 -5.445312 4.953125 -5.867188 4.953125 -6.265625 C 4.953125 -6.679688 4.800781 -7.03125 4.5 -7.3125 C 4.195312 -7.601562 3.804688 -7.75 3.328125 -7.75 C 2.816406 -7.75 2.410156 -7.597656 2.109375 -7.296875 C 1.804688 -6.992188 1.648438 -6.570312 1.640625 -6.03125 L 0.5625 -6.140625 C 0.632812 -6.953125 0.910156 -7.566406 1.390625 -7.984375 C 1.878906 -8.410156 2.535156 -8.625 3.359375 -8.625 C 4.179688 -8.625 4.832031 -8.394531 5.3125 -7.9375 C 5.789062 -7.476562 6.03125 -6.910156 6.03125 -6.234375 C 6.03125 -5.890625 5.957031 -5.550781 5.8125 -5.21875 C 5.675781 -4.894531 5.441406 -4.546875 5.109375 -4.171875 C 4.785156 -3.804688 4.25 -3.304688 3.5 -2.671875 C 2.863281 -2.140625 2.453125 -1.773438 2.265625 -1.578125 C 2.085938 -1.390625 1.941406 -1.203125 1.828125 -1.015625 Z M 6.046875 -1.015625 "/>
</g>
<g id="glyph-1-10">
<path d="M 3.875 0 L 3.875 -2.0625 L 0.15625 -2.0625 L 0.15625 -3.03125 L 4.078125 -8.59375 L 4.9375 -8.59375 L 4.9375 -3.03125 L 6.09375 -3.03125 L 6.09375 -2.0625 L 4.9375 -2.0625 L 4.9375 0 Z M 3.875 -3.03125 L 3.875 -6.890625 L 1.1875 -3.03125 Z M 3.875 -3.03125 "/>
</g>
<g id="glyph-1-11">
<path d="M 0.65625 -1.984375 L 1.671875 -2.078125 C 1.753906 -1.597656 1.914062 -1.25 2.15625 -1.03125 C 2.40625 -0.820312 2.71875 -0.71875 3.09375 -0.71875 C 3.414062 -0.71875 3.695312 -0.789062 3.9375 -0.9375 C 4.1875 -1.09375 4.390625 -1.289062 4.546875 -1.53125 C 4.703125 -1.78125 4.832031 -2.113281 4.9375 -2.53125 C 5.039062 -2.957031 5.09375 -3.390625 5.09375 -3.828125 C 5.09375 -3.878906 5.09375 -3.953125 5.09375 -4.046875 C 4.882812 -3.710938 4.597656 -3.4375 4.234375 -3.21875 C 3.867188 -3.007812 3.472656 -2.90625 3.046875 -2.90625 C 2.328125 -2.90625 1.722656 -3.160156 1.234375 -3.671875 C 0.742188 -4.191406 0.5 -4.875 0.5 -5.71875 C 0.5 -6.59375 0.753906 -7.296875 1.265625 -7.828125 C 1.785156 -8.359375 2.429688 -8.625 3.203125 -8.625 C 3.753906 -8.625 4.257812 -8.472656 4.71875 -8.171875 C 5.1875 -7.867188 5.539062 -7.4375 5.78125 -6.875 C 6.019531 -6.320312 6.140625 -5.519531 6.140625 -4.46875 C 6.140625 -3.375 6.019531 -2.5 5.78125 -1.84375 C 5.550781 -1.195312 5.195312 -0.703125 4.71875 -0.359375 C 4.25 -0.0234375 3.703125 0.140625 3.078125 0.140625 C 2.398438 0.140625 1.847656 -0.0390625 1.421875 -0.40625 C 0.992188 -0.78125 0.738281 -1.304688 0.65625 -1.984375 Z M 4.96875 -5.78125 C 4.96875 -6.382812 4.804688 -6.863281 4.484375 -7.21875 C 4.171875 -7.570312 3.785156 -7.75 3.328125 -7.75 C 2.859375 -7.75 2.445312 -7.554688 2.09375 -7.171875 C 1.75 -6.796875 1.578125 -6.300781 1.578125 -5.6875 C 1.578125 -5.144531 1.742188 -4.703125 2.078125 -4.359375 C 2.410156 -4.015625 2.816406 -3.84375 3.296875 -3.84375 C 3.785156 -3.84375 4.1875 -4.015625 4.5 -4.359375 C 4.8125 -4.703125 4.96875 -5.175781 4.96875 -5.78125 Z M 4.96875 -5.78125 "/>
</g>
<g id="glyph-1-12">
<path d="M 0.5 -2.265625 L 1.5625 -2.40625 C 1.675781 -1.8125 1.878906 -1.378906 2.171875 -1.109375 C 2.460938 -0.847656 2.816406 -0.71875 3.234375 -0.71875 C 3.734375 -0.71875 4.15625 -0.890625 4.5 -1.234375 C 4.84375 -1.578125 5.015625 -2.003906 5.015625 -2.515625 C 5.015625 -2.992188 4.851562 -3.390625 4.53125 -3.703125 C 4.21875 -4.023438 3.816406 -4.1875 3.328125 -4.1875 C 3.128906 -4.1875 2.878906 -4.144531 2.578125 -4.0625 L 2.703125 -5 C 2.773438 -4.988281 2.832031 -4.984375 2.875 -4.984375 C 3.320312 -4.984375 3.722656 -5.097656 4.078125 -5.328125 C 4.441406 -5.566406 4.625 -5.929688 4.625 -6.421875 C 4.625 -6.804688 4.492188 -7.125 4.234375 -7.375 C 3.972656 -7.632812 3.632812 -7.765625 3.21875 -7.765625 C 2.8125 -7.765625 2.46875 -7.632812 2.1875 -7.375 C 1.914062 -7.113281 1.742188 -6.726562 1.671875 -6.21875 L 0.609375 -6.40625 C 0.734375 -7.101562 1.023438 -7.644531 1.484375 -8.03125 C 1.941406 -8.425781 2.507812 -8.625 3.1875 -8.625 C 3.65625 -8.625 4.085938 -8.519531 4.484375 -8.3125 C 4.878906 -8.113281 5.179688 -7.84375 5.390625 -7.5 C 5.597656 -7.15625 5.703125 -6.785156 5.703125 -6.390625 C 5.703125 -6.023438 5.601562 -5.6875 5.40625 -5.375 C 5.207031 -5.070312 4.914062 -4.832031 4.53125 -4.65625 C 5.03125 -4.539062 5.421875 -4.296875 5.703125 -3.921875 C 5.984375 -3.554688 6.125 -3.09375 6.125 -2.53125 C 6.125 -1.78125 5.847656 -1.144531 5.296875 -0.625 C 4.753906 -0.101562 4.066406 0.15625 3.234375 0.15625 C 2.484375 0.15625 1.859375 -0.0664062 1.359375 -0.515625 C 0.859375 -0.972656 0.570312 -1.554688 0.5 -2.265625 Z M 0.5 -2.265625 "/>
</g>
<g id="glyph-1-13">
<path d="M 2.125 -4.65625 C 1.6875 -4.820312 1.359375 -5.050781 1.140625 -5.34375 C 0.929688 -5.644531 0.828125 -6 0.828125 -6.40625 C 0.828125 -7.03125 1.050781 -7.554688 1.5 -7.984375 C 1.957031 -8.410156 2.554688 -8.625 3.296875 -8.625 C 4.046875 -8.625 4.648438 -8.40625 5.109375 -7.96875 C 5.566406 -7.53125 5.796875 -7 5.796875 -6.375 C 5.796875 -5.976562 5.691406 -5.632812 5.484375 -5.34375 C 5.273438 -5.050781 4.957031 -4.820312 4.53125 -4.65625 C 5.0625 -4.488281 5.460938 -4.210938 5.734375 -3.828125 C 6.003906 -3.441406 6.140625 -2.984375 6.140625 -2.453125 C 6.140625 -1.722656 5.878906 -1.109375 5.359375 -0.609375 C 4.847656 -0.109375 4.164062 0.140625 3.3125 0.140625 C 2.46875 0.140625 1.785156 -0.109375 1.265625 -0.609375 C 0.742188 -1.109375 0.484375 -1.734375 0.484375 -2.484375 C 0.484375 -3.046875 0.625 -3.515625 0.90625 -3.890625 C 1.195312 -4.265625 1.601562 -4.519531 2.125 -4.65625 Z M 1.90625 -6.453125 C 1.90625 -6.046875 2.035156 -5.710938 2.296875 -5.453125 C 2.566406 -5.191406 2.910156 -5.0625 3.328125 -5.0625 C 3.734375 -5.0625 4.066406 -5.1875 4.328125 -5.4375 C 4.585938 -5.695312 4.71875 -6.015625 4.71875 -6.390625 C 4.71875 -6.773438 4.582031 -7.097656 4.3125 -7.359375 C 4.039062 -7.628906 3.707031 -7.765625 3.3125 -7.765625 C 2.90625 -7.765625 2.566406 -7.632812 2.296875 -7.375 C 2.035156 -7.113281 1.90625 -6.804688 1.90625 -6.453125 Z M 1.578125 -2.484375 C 1.578125 -2.179688 1.644531 -1.890625 1.78125 -1.609375 C 1.925781 -1.328125 2.140625 -1.109375 2.421875 -0.953125 C 2.703125 -0.796875 3.003906 -0.71875 3.328125 -0.71875 C 3.828125 -0.71875 4.238281 -0.878906 4.5625 -1.203125 C 4.894531 -1.523438 5.0625 -1.9375 5.0625 -2.4375 C 5.0625 -2.945312 4.894531 -3.367188 4.5625 -3.703125 C 4.226562 -4.035156 3.804688 -4.203125 3.296875 -4.203125 C 2.796875 -4.203125 2.382812 -4.035156 2.0625 -3.703125 C 1.738281 -3.378906 1.578125 -2.972656 1.578125 -2.484375 Z M 1.578125 -2.484375 "/>
</g>
<g id="glyph-1-14">
<path d="M 0.5 -2.25 L 1.609375 -2.34375 C 1.691406 -1.800781 1.878906 -1.394531 2.171875 -1.125 C 2.472656 -0.851562 2.835938 -0.71875 3.265625 -0.71875 C 3.765625 -0.71875 4.191406 -0.910156 4.546875 -1.296875 C 4.898438 -1.679688 5.078125 -2.1875 5.078125 -2.8125 C 5.078125 -3.414062 4.90625 -3.890625 4.5625 -4.234375 C 4.226562 -4.585938 3.785156 -4.765625 3.234375 -4.765625 C 2.898438 -4.765625 2.59375 -4.6875 2.3125 -4.53125 C 2.039062 -4.375 1.828125 -4.175781 1.671875 -3.9375 L 0.6875 -4.0625 L 1.515625 -8.46875 L 5.796875 -8.46875 L 5.796875 -7.46875 L 2.359375 -7.46875 L 1.90625 -5.15625 C 2.414062 -5.519531 2.953125 -5.703125 3.515625 -5.703125 C 4.265625 -5.703125 4.894531 -5.441406 5.40625 -4.921875 C 5.925781 -4.398438 6.1875 -3.726562 6.1875 -2.90625 C 6.1875 -2.132812 5.960938 -1.460938 5.515625 -0.890625 C 4.960938 -0.203125 4.210938 0.140625 3.265625 0.140625 C 2.484375 0.140625 1.84375 -0.078125 1.34375 -0.515625 C 0.851562 -0.953125 0.570312 -1.53125 0.5 -2.25 Z M 0.5 -2.25 "/>
</g>
<g id="glyph-2-0">
<path d="M 1.5 0 L 1.5 -7.5 L 7.5 -7.5 L 7.5 0 Z M 1.6875 -0.1875 L 7.3125 -0.1875 L 7.3125 -7.3125 L 1.6875 -7.3125 Z M 1.6875 -0.1875 "/>
</g>
<g id="glyph-2-1">
<path d="M 0.515625 0 L 2.328125 -8.59375 L 4.640625 -8.59375 C 5.285156 -8.59375 5.695312 -8.582031 5.875 -8.5625 C 6.226562 -8.53125 6.546875 -8.457031 6.828125 -8.34375 C 7.109375 -8.238281 7.359375 -8.085938 7.578125 -7.890625 C 7.804688 -7.691406 8.003906 -7.453125 8.171875 -7.171875 C 8.335938 -6.890625 8.46875 -6.566406 8.5625 -6.203125 C 8.65625 -5.847656 8.703125 -5.457031 8.703125 -5.03125 C 8.703125 -4.101562 8.523438 -3.28125 8.171875 -2.5625 C 7.816406 -1.84375 7.367188 -1.273438 6.828125 -0.859375 C 6.421875 -0.523438 5.894531 -0.28125 5.25 -0.125 C 4.875 -0.0390625 4.304688 0 3.546875 0 Z M 2.578125 -1.390625 L 3.46875 -1.390625 C 4.125 -1.390625 4.597656 -1.425781 4.890625 -1.5 C 5.179688 -1.582031 5.445312 -1.734375 5.6875 -1.953125 C 6.03125 -2.265625 6.320312 -2.6875 6.5625 -3.21875 C 6.800781 -3.75 6.921875 -4.367188 6.921875 -5.078125 C 6.921875 -5.691406 6.820312 -6.148438 6.625 -6.453125 C 6.425781 -6.765625 6.179688 -6.96875 5.890625 -7.0625 C 5.691406 -7.132812 5.332031 -7.171875 4.8125 -7.171875 L 3.78125 -7.171875 Z M 2.578125 -1.390625 "/>
</g>
<g id="glyph-2-2">
<path d="M 0.4375 0 L 2.234375 -8.59375 L 3.921875 -8.59375 L 3.3125 -5.71875 C 3.625 -5.957031 3.910156 -6.125 4.171875 -6.21875 C 4.441406 -6.320312 4.734375 -6.375 5.046875 -6.375 C 5.703125 -6.375 6.226562 -6.148438 6.625 -5.703125 C 7.019531 -5.265625 7.21875 -4.628906 7.21875 -3.796875 C 7.21875 -3.222656 7.125 -2.671875 6.9375 -2.140625 C 6.75 -1.609375 6.5 -1.175781 6.1875 -0.84375 C 5.882812 -0.507812 5.5625 -0.257812 5.21875 -0.09375 C 4.875 0.0625 4.515625 0.140625 4.140625 0.140625 C 3.253906 0.140625 2.601562 -0.25 2.1875 -1.03125 L 1.96875 0 Z M 2.703125 -2.53125 C 2.703125 -2.113281 2.816406 -1.773438 3.046875 -1.515625 C 3.285156 -1.253906 3.566406 -1.125 3.890625 -1.125 C 4.171875 -1.125 4.4375 -1.222656 4.6875 -1.421875 C 4.945312 -1.628906 5.160156 -1.957031 5.328125 -2.40625 C 5.503906 -2.851562 5.59375 -3.300781 5.59375 -3.75 C 5.59375 -4.1875 5.476562 -4.53125 5.25 -4.78125 C 5.019531 -5.039062 4.742188 -5.171875 4.421875 -5.171875 C 3.992188 -5.171875 3.628906 -4.972656 3.328125 -4.578125 C 2.910156 -4.046875 2.703125 -3.363281 2.703125 -2.53125 Z M 2.703125 -2.53125 "/>
</g>
<g id="glyph-2-3">
<path d="M 2.28125 -8.59375 L 3.953125 -8.59375 L 3.640625 -7.0625 L 1.953125 -7.0625 Z M 1.78125 -6.21875 L 3.46875 -6.21875 L 2.15625 0 L 0.484375 0 Z M 1.78125 -6.21875 "/>
</g>
<g id="glyph-2-4">
<path d="M 1.734375 -6.21875 L 3.328125 -6.21875 L 3.1875 -5.578125 C 3.53125 -5.859375 3.847656 -6.0625 4.140625 -6.1875 C 4.441406 -6.3125 4.757812 -6.375 5.09375 -6.375 C 5.75 -6.375 6.273438 -6.144531 6.671875 -5.6875 C 7.066406 -5.238281 7.265625 -4.570312 7.265625 -3.6875 C 7.265625 -2.5625 6.921875 -1.613281 6.234375 -0.84375 C 5.648438 -0.1875 4.957031 0.140625 4.15625 0.140625 C 3.332031 0.140625 2.710938 -0.191406 2.296875 -0.859375 L 1.625 2.375 L -0.0625 2.375 Z M 2.75 -2.65625 C 2.75 -2.164062 2.863281 -1.785156 3.09375 -1.515625 C 3.332031 -1.253906 3.613281 -1.125 3.9375 -1.125 C 4.207031 -1.125 4.472656 -1.222656 4.734375 -1.421875 C 4.992188 -1.628906 5.207031 -1.960938 5.375 -2.421875 C 5.539062 -2.890625 5.625 -3.328125 5.625 -3.734375 C 5.625 -4.191406 5.515625 -4.546875 5.296875 -4.796875 C 5.078125 -5.046875 4.796875 -5.171875 4.453125 -5.171875 C 4.128906 -5.171875 3.832031 -5.054688 3.5625 -4.828125 C 3.300781 -4.597656 3.097656 -4.257812 2.953125 -3.8125 C 2.816406 -3.375 2.75 -2.988281 2.75 -2.65625 Z M 2.75 -2.65625 "/>
</g>
<g id="glyph-2-5">
<path d="M 1.421875 -4.9375 L 1.734375 -6.4375 C 3.191406 -7.070312 4.316406 -7.804688 5.109375 -8.640625 L 6.125 -8.640625 L 4.3125 0 L 2.625 0 L 3.875 -5.953125 C 3.519531 -5.722656 3.113281 -5.515625 2.65625 -5.328125 C 2.195312 -5.140625 1.785156 -5.007812 1.421875 -4.9375 Z M 1.421875 -4.9375 "/>
</g>
<g id="glyph-2-6">
<path d="M 1.734375 -6.21875 L 3.3125 -6.21875 L 3.15625 -5.46875 C 3.769531 -6.070312 4.414062 -6.375 5.09375 -6.375 C 5.5625 -6.375 5.921875 -6.273438 6.171875 -6.078125 C 6.429688 -5.878906 6.597656 -5.609375 6.671875 -5.265625 C 6.878906 -5.578125 7.1875 -5.835938 7.59375 -6.046875 C 8 -6.265625 8.414062 -6.375 8.84375 -6.375 C 9.34375 -6.375 9.726562 -6.238281 10 -5.96875 C 10.28125 -5.707031 10.421875 -5.359375 10.421875 -4.921875 C 10.421875 -4.703125 10.367188 -4.328125 10.265625 -3.796875 L 9.46875 0 L 7.78125 0 L 8.578125 -3.796875 C 8.671875 -4.273438 8.71875 -4.546875 8.71875 -4.609375 C 8.71875 -4.785156 8.664062 -4.921875 8.5625 -5.015625 C 8.46875 -5.117188 8.316406 -5.171875 8.109375 -5.171875 C 7.691406 -5.171875 7.316406 -4.945312 6.984375 -4.5 C 6.742188 -4.1875 6.539062 -3.628906 6.375 -2.828125 L 5.78125 0 L 4.109375 0 L 4.890625 -3.765625 C 4.972656 -4.191406 5.015625 -4.472656 5.015625 -4.609375 C 5.015625 -4.773438 4.957031 -4.910156 4.84375 -5.015625 C 4.738281 -5.117188 4.585938 -5.171875 4.390625 -5.171875 C 4.210938 -5.171875 4.023438 -5.113281 3.828125 -5 C 3.628906 -4.894531 3.457031 -4.742188 3.3125 -4.546875 C 3.164062 -4.359375 3.039062 -4.113281 2.9375 -3.8125 C 2.882812 -3.675781 2.804688 -3.359375 2.703125 -2.859375 L 2.109375 0 L 0.421875 0 Z M 1.734375 -6.21875 "/>
</g>
<g id="glyph-2-7">
<path d="M 0.265625 -1.734375 L 1.890625 -2 C 2.035156 -1.65625 2.210938 -1.410156 2.421875 -1.265625 C 2.640625 -1.128906 2.9375 -1.0625 3.3125 -1.0625 C 3.695312 -1.0625 4.003906 -1.144531 4.234375 -1.3125 C 4.390625 -1.425781 4.46875 -1.566406 4.46875 -1.734375 C 4.46875 -1.847656 4.425781 -1.953125 4.34375 -2.046875 C 4.257812 -2.128906 4.03125 -2.234375 3.65625 -2.359375 C 2.632812 -2.691406 2.003906 -2.957031 1.765625 -3.15625 C 1.390625 -3.457031 1.203125 -3.859375 1.203125 -4.359375 C 1.203125 -4.847656 1.382812 -5.269531 1.75 -5.625 C 2.257812 -6.125 3.019531 -6.375 4.03125 -6.375 C 4.832031 -6.375 5.4375 -6.222656 5.84375 -5.921875 C 6.25 -5.628906 6.507812 -5.234375 6.625 -4.734375 L 5.0625 -4.46875 C 4.988281 -4.695312 4.859375 -4.867188 4.671875 -4.984375 C 4.421875 -5.128906 4.117188 -5.203125 3.765625 -5.203125 C 3.410156 -5.203125 3.15625 -5.144531 3 -5.03125 C 2.851562 -4.914062 2.78125 -4.78125 2.78125 -4.625 C 2.78125 -4.46875 2.859375 -4.34375 3.015625 -4.25 C 3.109375 -4.1875 3.421875 -4.078125 3.953125 -3.921875 C 4.773438 -3.679688 5.328125 -3.445312 5.609375 -3.21875 C 5.992188 -2.882812 6.1875 -2.492188 6.1875 -2.046875 C 6.1875 -1.453125 5.9375 -0.9375 5.4375 -0.5 C 4.945312 -0.0703125 4.25 0.140625 3.34375 0.140625 C 2.445312 0.140625 1.753906 -0.0195312 1.265625 -0.34375 C 0.773438 -0.675781 0.441406 -1.140625 0.265625 -1.734375 Z M 0.265625 -1.734375 "/>
</g>
<g id="glyph-2-8">
<path d="M 0.90625 -4.96875 L 1.15625 -6.21875 L 1.984375 -6.21875 L 2.1875 -7.21875 L 4.109375 -8.375 L 3.65625 -6.21875 L 4.6875 -6.21875 L 4.4375 -4.96875 L 3.40625 -4.96875 L 2.859375 -2.375 C 2.753906 -1.894531 2.703125 -1.625 2.703125 -1.5625 C 2.703125 -1.425781 2.742188 -1.320312 2.828125 -1.25 C 2.910156 -1.1875 3.0625 -1.15625 3.28125 -1.15625 C 3.351562 -1.15625 3.535156 -1.164062 3.828125 -1.1875 L 3.5625 0.0625 C 3.28125 0.113281 2.984375 0.140625 2.671875 0.140625 C 2.078125 0.140625 1.644531 0.0234375 1.375 -0.203125 C 1.113281 -0.429688 0.984375 -0.75 0.984375 -1.15625 C 0.984375 -1.34375 1.054688 -1.78125 1.203125 -2.46875 L 1.71875 -4.96875 Z M 0.90625 -4.96875 "/>
</g>
<g id="glyph-2-9">
<path d="M 3.171875 -5.90625 L 1.53125 -6.15625 C 1.65625 -6.957031 1.960938 -7.566406 2.453125 -7.984375 C 2.941406 -8.410156 3.550781 -8.625 4.28125 -8.625 C 5.082031 -8.625 5.707031 -8.40625 6.15625 -7.96875 C 6.613281 -7.539062 6.84375 -6.992188 6.84375 -6.328125 C 6.84375 -5.984375 6.769531 -5.640625 6.625 -5.296875 C 6.488281 -4.953125 6.265625 -4.59375 5.953125 -4.21875 C 5.722656 -3.957031 5.34375 -3.582031 4.8125 -3.09375 C 4.289062 -2.613281 3.941406 -2.28125 3.765625 -2.09375 C 3.597656 -1.914062 3.4375 -1.726562 3.28125 -1.53125 L 6.265625 -1.53125 L 5.953125 0 L 0.734375 0 C 0.785156 -0.425781 0.90625 -0.828125 1.09375 -1.203125 C 1.289062 -1.585938 1.53125 -1.941406 1.8125 -2.265625 C 2.101562 -2.597656 2.632812 -3.128906 3.40625 -3.859375 C 3.988281 -4.410156 4.351562 -4.769531 4.5 -4.9375 C 4.78125 -5.238281 4.96875 -5.5 5.0625 -5.71875 C 5.164062 -5.945312 5.21875 -6.148438 5.21875 -6.328125 C 5.21875 -6.617188 5.132812 -6.851562 4.96875 -7.03125 C 4.800781 -7.21875 4.582031 -7.3125 4.3125 -7.3125 C 4.050781 -7.3125 3.820312 -7.207031 3.625 -7 C 3.425781 -6.800781 3.273438 -6.4375 3.171875 -5.90625 Z M 3.171875 -5.90625 "/>
</g>
</g>
</defs>
<rect x="-72" y="-50.4" width="864" height="604.8" fill="rgb(100%, 100%, 100%)" fill-opacity="1"/>
<g fill="rgb(0%, 0%, 0%)" fill-opacity="1">
<use xlink:href="#glyph-0-1" x="176.199219" y="12.994141"/>
<use xlink:href="#glyph-0-2" x="189.199219" y="12.994141"/>
<use xlink:href="#glyph-0-3" x="199.199219" y="12.994141"/>
<use xlink:href="#glyph-0-4" x="212.199219" y="12.994141"/>
<use xlink:href="#glyph-0-5" x="222.199219" y="12.994141"/>
<use xlink:href="#glyph-0-6" x="228.199219" y="12.994141"/>
<use xlink:href="#glyph-0-7" x="238.199219" y="12.994141"/>
<use xlink:href="#glyph-0-8" x="248.199219" y="12.994141"/>
<use xlink:href="#glyph-0-9" x="258.199219" y="12.994141"/>
<use xlink:href="#glyph-0-10" x="262.199219" y="12.994141"/>
<use xlink:href="#glyph-0-11" x="272.199219" y="12.994141"/>
<use xlink:href="#glyph-0-6" x="277.199219" y="12.994141"/>
<use xlink:href="#glyph-0-12" x="287.199219" y="12.994141"/>
<use xlink:href="#glyph-0-13" x="297.199219" y="12.994141"/>
<use xlink:href="#glyph-0-7" x="302.199219" y="12.994141"/>
<use xlink:href="#glyph-0-6" x="312.199219" y="12.994141"/>
<use xlink:href="#glyph-0-4" x="322.199219" y="12.994141"/>
<use xlink:href="#glyph-0-6" x="332.199219" y="12.994141"/>
<use xlink:href="#glyph-0-14" x="342.199219" y="12.994141"/>
<use xlink:href="#glyph-0-13" x="351.199219" y="12.994141"/>
<use xlink:href="#glyph-0-15" x="356.199219" y="12.994141"/>
<use xlink:href="#glyph-0-4" x="360.199219" y="12.994141"/>
<use xlink:href="#glyph-0-13" x="370.199219" y="12.994141"/>
<use xlink:href="#glyph-0-7" x="375.199219" y="12.994141"/>
<use xlink:href="#glyph-0-8" x="385.199219" y="12.994141"/>
<use xlink:href="#glyph-0-16" x="395.199219" y="12.994141"/>
<use xlink:href="#glyph-0-17" x="404.199219" y="12.994141"/>
<use xlink:href="#glyph-0-17" x="413.199219" y="12.994141"/>
<use xlink:href="#glyph-0-13" x="423.199219" y="12.994141"/>
<use xlink:href="#glyph-0-10" x="428.199219" y="12.994141"/>
<use xlink:href="#glyph-0-11" x="438.199219" y="12.994141"/>
<use xlink:href="#glyph-0-13" x="443.199219" y="12.994141"/>
<use xlink:href="#glyph-0-18" x="448.199219" y="12.994141"/>
<use xlink:href="#glyph-0-19" x="458.199219" y="12.994141"/>
</g>
<path fill-rule="nonzero" fill="rgb(99.215686%, 75.294118%, 52.54902%)" fill-opacity="1" stroke-width="0.75" stroke-linecap="round" stroke-linejoin="round" stroke="rgb(0%, 0%, 0%)" stroke-opacity="1" stroke-miterlimit="10" d="M 645.53125 257.898438 C 645.53125 263.898438 636.53125 263.898438 636.53125 257.898438 C 636.53125 251.898438 645.53125 251.898438 645.53125 257.898438 "/>
<g fill="rgb(0%, 0%, 0%)" fill-opacity="1">
<use xlink:href="#glyph-1-1" x="654.230469" y="262.261719"/>
<use xlink:href="#glyph-1-2" x="663.230469" y="262.261719"/>
<use xlink:href="#glyph-1-3" x="670.230469" y="262.261719"/>
<use xlink:href="#glyph-1-4" x="673.230469" y="262.261719"/>
<use xlink:href="#glyph-1-5" x="680.230469" y="262.261719"/>
</g>
<path fill-rule="nonzero" fill="rgb(74.509804%, 68.235294%, 83.137255%)" fill-opacity="1" stroke-width="0.75" stroke-linecap="round" stroke-linejoin="round" stroke="rgb(0%, 0%, 0%)" stroke-opacity="1" stroke-miterlimit="10" d="M 645.53125 273.5 C 645.53125 279.5 636.53125 279.5 636.53125 273.5 C 636.53125 267.5 645.53125 267.5 645.53125 273.5 "/>
<g fill="rgb(0%, 0%, 0%)" fill-opacity="1">
<use xlink:href="#glyph-1-1" x="654.230469" y="277.863281"/>
<use xlink:href="#glyph-1-6" x="663.230469" y="277.863281"/>
<use xlink:href="#glyph-1-7" x="673.230469" y="277.863281"/>
<use xlink:href="#glyph-1-8" x="679.230469" y="277.863281"/>
<use xlink:href="#glyph-1-5" x="682.230469" y="277.863281"/>
<use xlink:href="#glyph-1-9" x="689.230469" y="277.863281"/>
</g>
<path fill-rule="nonzero" fill="rgb(99.215686%, 75.294118%, 52.54902%)" fill-opacity="1" d="M 270.945312 499.199219 L 278.3125 498.839844 L 285.667969 498.25 L 292.996094 497.425781 L 300.296875 496.371094 L 307.558594 495.085938 L 314.78125 493.574219 L 321.949219 491.832031 L 329.058594 489.867188 L 336.101562 487.679688 L 343.070312 485.269531 L 349.964844 482.636719 L 356.769531 479.792969 L 363.480469 476.734375 L 370.09375 473.464844 L 376.597656 469.988281 L 382.992188 466.308594 L 387.71875 463.382812 L 384.0625 462.867188 L 377.855469 461.785156 L 371.683594 460.511719 L 365.554688 459.039062 L 359.476562 457.378906 L 353.453125 455.523438 L 347.492188 453.480469 L 341.597656 451.25 L 335.777344 448.835938 L 330.035156 446.238281 L 324.378906 443.460938 L 318.8125 440.503906 L 313.339844 437.375 L 307.972656 434.074219 L 302.710938 430.609375 L 297.558594 426.976562 L 292.527344 423.183594 L 287.617188 419.230469 L 282.835938 415.128906 L 278.183594 410.875 L 273.667969 406.480469 L 269.292969 401.941406 L 265.066406 397.269531 L 260.988281 392.464844 L 257.0625 387.535156 L 253.296875 382.480469 L 249.6875 377.3125 L 246.25 372.035156 L 242.976562 366.648438 L 239.875 361.164062 L 236.949219 355.582031 L 234.199219 349.910156 L 231.632812 344.15625 L 229.246094 338.320312 L 227.046875 332.414062 L 225.035156 326.445312 L 223.210938 320.410156 L 221.578125 314.324219 L 220.140625 308.1875 L 218.898438 302.011719 L 217.847656 295.796875 L 216.996094 289.550781 L 216.34375 283.285156 L 215.886719 277 L 215.628906 270.703125 L 215.570312 264.398438 L 215.710938 258.097656 L 216.050781 251.804688 L 216.589844 245.527344 L 217.324219 239.269531 L 218.257812 233.035156 L 219.386719 226.835938 L 220.710938 220.675781 L 222.230469 214.558594 L 223.941406 208.492188 L 225.839844 202.484375 L 227.933594 196.539062 L 230.207031 190.664062 L 232.667969 184.859375 L 235.3125 179.140625 L 238.132812 173.503906 L 241.132812 167.960938 L 244.304688 162.515625 L 247.648438 157.171875 L 251.15625 151.9375 L 254.832031 146.820312 L 258.664062 141.816406 L 262.652344 136.9375 L 266.792969 132.1875 L 271.082031 127.570312 L 275.515625 123.089844 L 280.085938 118.75 L 284.792969 114.558594 L 289.628906 110.519531 L 294.589844 106.632812 L 299.671875 102.90625 L 304.867188 99.339844 L 310.175781 95.941406 L 315.585938 92.710938 L 321.097656 89.652344 L 326.703125 86.773438 L 332.394531 84.066406 L 338.167969 81.546875 L 344.019531 79.207031 L 349.945312 77.054688 L 355.929688 75.089844 L 361.976562 73.3125 L 368.078125 71.730469 L 374.226562 70.339844 L 380.414062 69.144531 L 386.636719 68.144531 L 387.699219 68.007812 L 385.59375 66.667969 L 379.25 62.90625 L 372.792969 59.34375 L 366.222656 55.988281 L 359.550781 52.84375 L 352.78125 49.910156 L 345.925781 47.191406 L 338.988281 44.691406 L 331.972656 42.410156 L 324.890625 40.351562 L 317.746094 38.515625 L 310.546875 36.910156 L 303.300781 35.53125 L 296.011719 34.382812 L 288.695312 33.460938 L 281.351562 32.773438 L 273.988281 32.320312 L 266.617188 32.097656 L 259.238281 32.105469 L 251.867188 32.351562 L 244.507812 32.824219 L 237.164062 33.535156 L 229.847656 34.472656 L 222.566406 35.640625 L 215.324219 37.042969 L 208.128906 38.667969 L 200.988281 40.519531 L 193.910156 42.597656 L 186.902344 44.898438 L 179.96875 47.417969 L 173.121094 50.15625 L 166.363281 53.109375 L 159.699219 56.273438 L 153.140625 59.648438 L 146.6875 63.226562 L 140.355469 67.007812 L 134.144531 70.984375 L 128.0625 75.160156 L 122.113281 79.519531 L 116.308594 84.070312 L 110.644531 88.796875 L 105.136719 93.703125 L 99.785156 98.78125 L 94.597656 104.023438 L 89.578125 109.429688 L 84.734375 114.988281 L 80.0625 120.699219 L 75.578125 126.554688 L 71.277344 132.550781 L 67.171875 138.675781 L 63.257812 144.929688 L 59.546875 151.304688 L 56.035156 157.789062 L 52.734375 164.386719 L 49.640625 171.082031 L 46.757812 177.871094 L 44.09375 184.75 L 41.648438 191.710938 L 39.421875 198.742188 L 37.421875 205.839844 L 35.644531 213 L 34.09375 220.210938 L 32.769531 227.46875 L 31.679688 234.761719 L 30.816406 242.089844 L 30.1875 249.4375 L 29.792969 256.804688 L 29.625 264.179688 L 29.695312 271.554688 L 29.996094 278.925781 L 30.53125 286.28125 L 31.296875 293.617188 L 32.292969 300.925781 L 33.519531 308.199219 L 34.976562 315.429688 L 36.660156 322.613281 L 38.570312 329.734375 L 40.703125 336.796875 L 43.058594 343.789062 L 45.632812 350.699219 L 48.425781 357.527344 L 51.429688 364.261719 L 54.648438 370.902344 L 58.074219 377.433594 L 61.703125 383.855469 L 65.53125 390.160156 L 69.558594 396.339844 L 73.78125 402.386719 L 78.191406 408.300781 L 82.785156 414.070312 L 87.558594 419.695312 L 92.507812 425.164062 L 97.625 430.476562 L 102.910156 435.621094 L 108.355469 440.597656 L 113.953125 445.402344 L 119.699219 450.023438 L 125.589844 454.464844 L 131.617188 458.714844 L 137.777344 462.773438 L 144.0625 466.636719 L 150.464844 470.300781 L 156.980469 473.757812 L 163.601562 477.007812 L 170.320312 480.050781 L 177.132812 482.875 L 184.03125 485.488281 L 191.011719 487.878906 L 198.058594 490.046875 L 205.175781 491.996094 L 212.347656 493.714844 L 219.570312 495.207031 L 226.835938 496.472656 L 234.140625 497.507812 L 241.472656 498.308594 L 248.828125 498.882812 L 256.195312 499.222656 L 263.570312 499.328125 Z M 270.945312 499.199219 "/>
<path fill-rule="nonzero" fill="rgb(74.509804%, 68.235294%, 83.137255%)" fill-opacity="1" d="M 421.75 465.195312 L 428.042969 464.890625 L 434.324219 464.382812 L 440.585938 463.679688 L 446.824219 462.78125 L 453.03125 461.683594 L 459.199219 460.390625 L 465.324219 458.902344 L 471.398438 457.222656 L 477.414062 455.351562 L 483.371094 453.292969 L 489.257812 451.046875 L 495.074219 448.617188 L 500.808594 446.003906 L 506.457031 443.210938 L 512.015625 440.238281 L 517.476562 437.09375 L 522.835938 433.78125 L 528.089844 430.296875 L 533.230469 426.652344 L 538.25 422.84375 L 543.152344 418.878906 L 547.921875 414.761719 L 552.5625 410.5 L 557.066406 406.089844 L 561.425781 401.539062 L 565.640625 396.855469 L 569.707031 392.039062 L 573.617188 387.097656 L 577.371094 382.035156 L 580.964844 376.855469 L 584.390625 371.566406 L 587.648438 366.171875 L 590.734375 360.679688 L 593.644531 355.089844 L 596.375 349.410156 L 598.929688 343.648438 L 601.296875 337.808594 L 603.480469 331.898438 L 605.476562 325.917969 L 607.285156 319.882812 L 608.898438 313.789062 L 610.320312 307.648438 L 611.546875 301.46875 L 612.578125 295.25 L 613.414062 289.003906 L 614.050781 282.734375 L 614.488281 276.449219 L 614.730469 270.152344 L 614.769531 263.847656 L 614.613281 257.550781 L 614.253906 251.257812 L 613.699219 244.980469 L 612.945312 238.722656 L 611.996094 232.492188 L 610.851562 226.296875 L 609.507812 220.136719 L 607.972656 214.027344 L 606.246094 207.964844 L 604.328125 201.960938 L 602.222656 196.023438 L 599.929688 190.152344 L 597.453125 184.359375 L 594.792969 178.644531 L 591.957031 173.015625 L 588.941406 167.480469 L 585.753906 162.046875 L 582.398438 156.710938 L 578.875 151.488281 L 575.1875 146.375 L 571.339844 141.386719 L 567.335938 136.515625 L 563.183594 131.777344 L 558.882812 127.171875 L 554.4375 122.703125 L 549.851562 118.378906 L 545.136719 114.199219 L 540.289062 110.171875 L 535.316406 106.300781 L 530.222656 102.589844 L 525.019531 99.039062 L 519.703125 95.652344 L 514.28125 92.4375 L 508.761719 89.394531 L 503.148438 86.527344 L 497.449219 83.839844 L 491.667969 81.332031 L 485.808594 79.011719 L 479.882812 76.875 L 473.886719 74.925781 L 467.835938 73.167969 L 461.730469 71.601562 L 455.582031 70.226562 L 449.390625 69.050781 L 443.164062 68.066406 L 436.914062 67.28125 L 430.636719 66.695312 L 424.347656 66.304688 L 418.046875 66.113281 L 411.746094 66.125 L 405.449219 66.332031 L 399.160156 66.738281 L 392.886719 67.34375 L 387.699219 68.007812 L 391.816406 70.628906 L 397.910156 74.785156 L 403.871094 79.132812 L 409.691406 83.664062 L 415.363281 88.378906 L 420.886719 93.269531 L 426.25 98.332031 L 431.453125 103.558594 L 436.488281 108.949219 L 441.351562 114.5 L 446.035156 120.195312 L 450.535156 126.039062 L 454.851562 132.019531 L 458.976562 138.136719 L 462.90625 144.378906 L 466.636719 150.742188 L 470.164062 157.21875 L 473.484375 163.804688 L 476.597656 170.492188 L 479.496094 177.277344 L 482.179688 184.148438 L 484.644531 191.097656 L 486.890625 198.125 L 488.914062 205.21875 L 490.710938 212.371094 L 492.277344 219.578125 L 493.621094 226.832031 L 494.734375 234.125 L 495.613281 241.449219 L 496.265625 248.796875 L 496.683594 256.160156 L 496.867188 263.535156 L 496.820312 270.910156 L 496.539062 278.28125 L 496.023438 285.640625 L 495.277344 292.976562 L 494.300781 300.289062 L 493.09375 307.566406 L 491.660156 314.800781 L 489.996094 321.988281 L 488.105469 329.117188 L 485.992188 336.183594 L 483.65625 343.179688 L 481.097656 350.097656 L 478.328125 356.933594 L 475.339844 363.679688 L 472.140625 370.324219 L 468.734375 376.867188 L 465.121094 383.296875 L 461.308594 389.613281 L 457.296875 395.804688 L 453.09375 401.863281 L 448.699219 407.789062 L 444.121094 413.574219 L 439.363281 419.210938 L 434.429688 424.691406 L 429.328125 430.015625 L 424.054688 435.179688 L 418.625 440.171875 L 413.039062 444.988281 L 407.304688 449.628906 L 401.429688 454.082031 L 395.410156 458.351562 L 389.265625 462.429688 L 387.71875 463.382812 L 390.304688 463.75 L 396.566406 464.4375 L 402.851562 464.925781 L 409.144531 465.214844 L 415.449219 465.304688 Z M 421.75 465.195312 "/>
<path fill-rule="nonzero" fill="rgb(100%, 100%, 60%)" fill-opacity="1" d="M 389.265625 462.429688 L 395.410156 458.351562 L 401.429688 454.082031 L 407.304688 449.628906 L 413.039062 444.988281 L 418.625 440.171875 L 424.054688 435.179688 L 429.328125 430.015625 L 434.429688 424.691406 L 439.363281 419.210938 L 444.121094 413.574219 L 448.699219 407.789062 L 453.09375 401.863281 L 457.296875 395.804688 L 461.308594 389.613281 L 465.121094 383.296875 L 468.734375 376.867188 L 472.140625 370.324219 L 475.339844 363.679688 L 478.328125 356.933594 L 481.097656 350.097656 L 483.65625 343.179688 L 485.992188 336.183594 L 488.105469 329.117188 L 489.996094 321.988281 L 491.660156 314.800781 L 493.09375 307.566406 L 494.300781 300.289062 L 495.277344 292.976562 L 496.023438 285.640625 L 496.539062 278.28125 L 496.820312 270.910156 L 496.867188 263.535156 L 496.683594 256.160156 L 496.265625 248.796875 L 495.613281 241.449219 L 494.734375 234.125 L 493.621094 226.832031 L 492.277344 219.578125 L 490.710938 212.371094 L 488.914062 205.21875 L 486.890625 198.125 L 484.644531 191.097656 L 482.179688 184.148438 L 479.496094 177.277344 L 476.597656 170.492188 L 473.484375 163.804688 L 470.164062 157.21875 L 466.636719 150.742188 L 462.90625 144.378906 L 458.976562 138.136719 L 454.851562 132.019531 L 450.535156 126.039062 L 446.035156 120.195312 L 441.351562 114.5 L 436.488281 108.949219 L 431.453125 103.558594 L 426.25 98.332031 L 420.886719 93.269531 L 415.363281 88.378906 L 409.691406 83.664062 L 403.871094 79.132812 L 397.910156 74.785156 L 391.816406 70.628906 L 387.699219 68.007812 L 386.636719 68.144531 L 380.414062 69.144531 L 374.226562 70.339844 L 368.078125 71.730469 L 361.976562 73.3125 L 355.929688 75.089844 L 349.945312 77.054688 L 344.019531 79.207031 L 338.167969 81.546875 L 332.394531 84.066406 L 326.703125 86.773438 L 321.097656 89.652344 L 315.585938 92.710938 L 310.175781 95.941406 L 304.867188 99.339844 L 299.671875 102.90625 L 294.589844 106.632812 L 289.628906 110.519531 L 284.792969 114.558594 L 280.085938 118.75 L 275.515625 123.089844 L 271.082031 127.570312 L 266.792969 132.1875 L 262.652344 136.9375 L 258.664062 141.816406 L 254.832031 146.820312 L 251.15625 151.9375 L 247.648438 157.171875 L 244.304688 162.515625 L 241.132812 167.960938 L 238.132812 173.503906 L 235.3125 179.140625 L 232.667969 184.859375 L 230.207031 190.664062 L 227.933594 196.539062 L 225.839844 202.484375 L 223.941406 208.492188 L 222.230469 214.558594 L 220.710938 220.675781 L 219.386719 226.835938 L 218.257812 233.035156 L 217.324219 239.269531 L 216.589844 245.527344 L 216.050781 251.804688 L 215.710938 258.097656 L 215.570312 264.398438 L 215.628906 270.703125 L 215.886719 277 L 216.34375 283.285156 L 216.996094 289.550781 L 217.847656 295.796875 L 218.898438 302.011719 L 220.140625 308.1875 L 221.578125 314.324219 L 223.210938 320.410156 L 225.035156 326.445312 L 227.046875 332.414062 L 229.246094 338.320312 L 231.632812 344.15625 L 234.199219 349.910156 L 236.949219 355.582031 L 239.875 361.164062 L 242.976562 366.648438 L 246.25 372.035156 L 249.6875 377.3125 L 253.296875 382.480469 L 257.0625 387.535156 L 260.988281 392.464844 L 265.066406 397.269531 L 269.292969 401.941406 L 273.667969 406.480469 L 278.183594 410.875 L 282.835938 415.128906 L 287.617188 419.230469 L 292.527344 423.183594 L 297.558594 426.976562 L 302.710938 430.609375 L 307.972656 434.074219 L 313.339844 437.375 L 318.8125 440.503906 L 324.378906 443.460938 L 330.035156 446.238281 L 335.777344 448.835938 L 341.597656 451.25 L 347.492188 453.480469 L 353.453125 455.523438 L 359.476562 457.378906 L 365.554688 459.039062 L 371.683594 460.511719 L 377.855469 461.785156 L 384.0625 462.867188 L 387.71875 463.382812 Z M 389.265625 462.429688 "/>
<path fill="none" stroke-width="0.75" stroke-linecap="round" stroke-linejoin="round" stroke="rgb(0%, 0%, 0%)" stroke-opacity="1" stroke-miterlimit="10" d="M 415.363281 88.378906 L 409.691406 83.664062 L 403.871094 79.132812 L 397.910156 74.785156 L 391.816406 70.628906 L 385.59375 66.667969 L 379.25 62.90625 L 372.792969 59.34375 L 366.222656 55.988281 L 359.550781 52.84375 L 352.78125 49.910156 L 345.925781 47.191406 L 338.988281 44.691406 L 331.972656 42.410156 L 324.890625 40.351562 L 317.746094 38.515625 L 310.546875 36.910156 L 303.300781 35.53125 L 296.011719 34.382812 L 288.695312 33.460938 L 281.351562 32.773438 L 273.988281 32.320312 L 266.617188 32.097656 L 259.238281 32.105469 L 251.867188 32.351562 L 244.507812 32.824219 L 237.164062 33.535156 L 229.847656 34.472656 L 222.566406 35.640625 L 215.324219 37.042969 L 208.128906 38.667969 L 200.988281 40.519531 L 193.910156 42.597656 L 186.902344 44.898438 L 179.96875 47.417969 L 173.121094 50.15625 L 166.363281 53.109375 L 159.699219 56.273438 L 153.140625 59.648438 L 146.6875 63.226562 L 140.355469 67.007812 L 134.144531 70.984375 L 128.0625 75.160156 L 122.113281 79.519531 L 116.308594 84.070312 L 110.644531 88.796875 L 105.136719 93.703125 L 99.785156 98.78125 L 94.597656 104.023438 L 89.578125 109.429688 L 84.734375 114.988281 L 80.0625 120.699219 L 75.578125 126.554688 L 71.277344 132.550781 L 67.171875 138.675781 L 63.257812 144.929688 L 59.546875 151.304688 L 56.035156 157.789062 L 52.734375 164.386719 L 49.640625 171.082031 L 46.757812 177.871094 L 44.09375 184.75 L 41.648438 191.710938 L 39.421875 198.742188 L 37.421875 205.839844 L 35.644531 213 L 34.09375 220.210938 L 32.769531 227.46875 L 31.679688 234.761719 L 30.816406 242.089844 L 30.1875 249.4375 L 29.792969 256.804688 L 29.625 264.179688 L 29.695312 271.554688 L 29.996094 278.925781 L 30.53125 286.28125 L 31.296875 293.617188 L 32.292969 300.925781 L 33.519531 308.199219 L 34.976562 315.429688 L 36.660156 322.613281 L 38.570312 329.734375 L 40.703125 336.796875 L 43.058594 343.789062 L 45.632812 350.699219 L 48.425781 357.527344 L 51.429688 364.261719 L 54.648438 370.902344 L 58.074219 377.433594 L 61.703125 383.855469 L 65.53125 390.160156 L 69.558594 396.339844 L 73.78125 402.386719 L 78.191406 408.300781 L 82.785156 414.070312 L 87.558594 419.695312 L 92.507812 425.164062 L 97.625 430.476562 L 102.910156 435.621094 L 108.355469 440.597656 L 113.953125 445.402344 L 119.699219 450.023438 L 125.589844 454.464844 L 131.617188 458.714844 L 137.777344 462.773438 L 144.0625 466.636719 L 150.464844 470.300781 L 156.980469 473.757812 L 163.601562 477.007812 L 170.320312 480.050781 L 177.132812 482.875 L 184.03125 485.488281 L 191.011719 487.878906 L 198.058594 490.046875 L 205.175781 491.996094 L 212.347656 493.714844 L 219.570312 495.207031 L 226.835938 496.472656 L 234.140625 497.507812 L 241.472656 498.308594 L 248.828125 498.882812 L 256.195312 499.222656 L 263.570312 499.328125 L 270.945312 499.199219 L 278.3125 498.839844 L 285.667969 498.25 L 292.996094 497.425781 L 300.296875 496.371094 L 307.558594 495.085938 L 314.78125 493.574219 L 321.949219 491.832031 L 329.058594 489.867188 L 336.101562 487.679688 L 343.070312 485.269531 L 349.964844 482.636719 L 356.769531 479.792969 L 363.480469 476.734375 L 370.09375 473.464844 L 376.597656 469.988281 L 382.992188 466.308594 L 389.265625 462.429688 L 395.410156 458.351562 L 401.429688 454.082031 L 407.304688 449.628906 L 413.039062 444.988281 L 418.625 440.171875 L 424.054688 435.179688 L 429.328125 430.015625 L 434.429688 424.691406 L 439.363281 419.210938 L 444.121094 413.574219 L 448.699219 407.789062 L 453.09375 401.863281 L 457.296875 395.804688 L 461.308594 389.613281 L 465.121094 383.296875 L 468.734375 376.867188 L 472.140625 370.324219 L 475.339844 363.679688 L 478.328125 356.933594 L 481.097656 350.097656 L 483.65625 343.179688 L 485.992188 336.183594 L 488.105469 329.117188 L 489.996094 321.988281 L 491.660156 314.800781 L 493.09375 307.566406 L 494.300781 300.289062 L 495.277344 292.976562 L 496.023438 285.640625 L 496.539062 278.28125 L 496.820312 270.910156 L 496.867188 263.535156 L 496.683594 256.160156 L 496.265625 248.796875 L 495.613281 241.449219 L 494.734375 234.125 L 493.621094 226.832031 L 492.277344 219.578125 L 490.710938 212.371094 L 488.914062 205.21875 L 486.890625 198.125 L 484.644531 191.097656 L 482.179688 184.148438 L 479.496094 177.277344 L 476.597656 170.492188 L 473.484375 163.804688 L 470.164062 157.21875 L 466.636719 150.742188 L 462.90625 144.378906 L 458.976562 138.136719 L 454.851562 132.019531 L 450.535156 126.039062 L 446.035156 120.195312 L 441.351562 114.5 L 436.488281 108.949219 L 431.453125 103.558594 L 426.25 98.332031 L 420.886719 93.269531 L 415.363281 88.378906 "/>
<path fill="none" stroke-width="0.75" stroke-linecap="round" stroke-linejoin="round" stroke="rgb(0%, 0%, 0%)" stroke-opacity="1" stroke-dasharray="3 3" stroke-miterlimit="10" d="M 545.136719 114.199219 L 540.289062 110.171875 L 535.316406 106.300781 L 530.222656 102.589844 L 525.019531 99.039062 L 519.703125 95.652344 L 514.28125 92.4375 L 508.761719 89.394531 L 503.148438 86.527344 L 497.449219 83.839844 L 491.667969 81.332031 L 485.808594 79.011719 L 479.882812 76.875 L 473.886719 74.925781 L 467.835938 73.167969 L 461.730469 71.601562 L 455.582031 70.226562 L 449.390625 69.050781 L 443.164062 68.066406 L 436.914062 67.28125 L 430.636719 66.695312 L 424.347656 66.304688 L 418.046875 66.113281 L 411.746094 66.125 L 405.449219 66.332031 L 399.160156 66.738281 L 392.886719 67.34375 L 386.636719 68.144531 L 380.414062 69.144531 L 374.226562 70.339844 L 368.078125 71.730469 L 361.976562 73.3125 L 355.929688 75.089844 L 349.945312 77.054688 L 344.019531 79.207031 L 338.167969 81.546875 L 332.394531 84.066406 L 326.703125 86.773438 L 321.097656 89.652344 L 315.585938 92.710938 L 310.175781 95.941406 L 304.867188 99.339844 L 299.671875 102.90625 L 294.589844 106.632812 L 289.628906 110.519531 L 284.792969 114.558594 L 280.085938 118.75 L 275.515625 123.089844 L 271.082031 127.570312 L 266.792969 132.1875 L 262.652344 136.9375 L 258.664062 141.816406 L 254.832031 146.820312 L 251.15625 151.9375 L 247.648438 157.171875 L 244.304688 162.515625 L 241.132812 167.960938 L 238.132812 173.503906 L 235.3125 179.140625 L 232.667969 184.859375 L 230.207031 190.664062 L 227.933594 196.539062 L 225.839844 202.484375 L 223.941406 208.492188 L 222.230469 214.558594 L 220.710938 220.675781 L 219.386719 226.835938 L 218.257812 233.035156 L 217.324219 239.269531 L 216.589844 245.527344 L 216.050781 251.804688 L 215.710938 258.097656 L 215.570312 264.398438 L 215.628906 270.703125 L 215.886719 277 L 216.34375 283.285156 L 216.996094 289.550781 L 217.847656 295.796875 L 218.898438 302.011719 L 220.140625 308.1875 L 221.578125 314.324219 L 223.210938 320.410156 L 225.035156 326.445312 L 227.046875 332.414062 L 229.246094 338.320312 L 231.632812 344.15625 L 234.199219 349.910156 L 236.949219 355.582031 L 239.875 361.164062 L 242.976562 366.648438 L 246.25 372.035156 L 249.6875 377.3125 L 253.296875 382.480469 L 257.0625 387.535156 L 260.988281 392.464844 L 265.066406 397.269531 L 269.292969 401.941406 L 273.667969 406.480469 L 278.183594 410.875 L 282.835938 415.128906 L 287.617188 419.230469 L 292.527344 423.183594 L 297.558594 426.976562 L 302.710938 430.609375 L 307.972656 434.074219 L 313.339844 437.375 L 318.8125 440.503906 L 324.378906 443.460938 L 330.035156 446.238281 L 335.777344 448.835938 L 341.597656 451.25 L 347.492188 453.480469 L 353.453125 455.523438 L 359.476562 457.378906 L 365.554688 459.039062 L 371.683594 460.511719 L 377.855469 461.785156 L 384.0625 462.867188 L 390.304688 463.75 L 396.566406 464.4375 L 402.851562 464.925781 L 409.144531 465.214844 L 415.449219 465.304688 L 421.75 465.195312 L 428.042969 464.890625 L 434.324219 464.382812 L 440.585938 463.679688 L 446.824219 462.78125 L 453.03125 461.683594 L 459.199219 460.390625 L 465.324219 458.902344 L 471.398438 457.222656 L 477.414062 455.351562 L 483.371094 453.292969 L 489.257812 451.046875 L 495.074219 448.617188 L 500.808594 446.003906 L 506.457031 443.210938 L 512.015625 440.238281 L 517.476562 437.09375 L 522.835938 433.78125 L 528.089844 430.296875 L 533.230469 426.652344 L 538.25 422.84375 L 543.152344 418.878906 L 547.921875 414.761719 L 552.5625 410.5 L 557.066406 406.089844 L 561.425781 401.539062 L 565.640625 396.855469 L 569.707031 392.039062 L 573.617188 387.097656 L 577.371094 382.035156 L 580.964844 376.855469 L 584.390625 371.566406 L 587.648438 366.171875 L 590.734375 360.679688 L 593.644531 355.089844 L 596.375 349.410156 L 598.929688 343.648438 L 601.296875 337.808594 L 603.480469 331.898438 L 605.476562 325.917969 L 607.285156 319.882812 L 608.898438 313.789062 L 610.320312 307.648438 L 611.546875 301.46875 L 612.578125 295.25 L 613.414062 289.003906 L 614.050781 282.734375 L 614.488281 276.449219 L 614.730469 270.152344 L 614.769531 263.847656 L 614.613281 257.550781 L 614.253906 251.257812 L 613.699219 244.980469 L 612.945312 238.722656 L 611.996094 232.492188 L 610.851562 226.296875 L 609.507812 220.136719 L 607.972656 214.027344 L 606.246094 207.964844 L 604.328125 201.960938 L 602.222656 196.023438 L 599.929688 190.152344 L 597.453125 184.359375 L 594.792969 178.644531 L 591.957031 173.015625 L 588.941406 167.480469 L 585.753906 162.046875 L 582.398438 156.710938 L 578.875 151.488281 L 575.1875 146.375 L 571.339844 141.386719 L 567.335938 136.515625 L 563.183594 131.777344 L 558.882812 127.171875 L 554.4375 122.703125 L 549.851562 118.378906 L 545.136719 114.199219 "/>
<g fill="rgb(0%, 0%, 0%)" fill-opacity="1">
<use xlink:href="#glyph-2-1" x="105.449219" y="256.730469"/>
<use xlink:href="#glyph-2-2" x="114.449219" y="256.730469"/>
<use xlink:href="#glyph-2-3" x="121.449219" y="256.730469"/>
<use xlink:href="#glyph-2-4" x="124.449219" y="256.730469"/>
<use xlink:href="#glyph-2-5" x="131.449219" y="256.730469"/>
</g>
<g fill="rgb(0%, 0%, 0%)" fill-opacity="1">
<use xlink:href="#glyph-1-10" x="111.449219" y="271.492188"/>
<use xlink:href="#glyph-1-11" x="118.449219" y="271.492188"/>
<use xlink:href="#glyph-1-10" x="125.449219" y="271.492188"/>
</g>
<g fill="rgb(0%, 0%, 0%)" fill-opacity="1">
<use xlink:href="#glyph-2-1" x="531.953125" y="231.386719"/>
<use xlink:href="#glyph-2-6" x="540.953125" y="231.386719"/>
<use xlink:href="#glyph-2-7" x="551.953125" y="231.386719"/>
<use xlink:href="#glyph-2-8" x="558.953125" y="231.386719"/>
<use xlink:href="#glyph-2-5" x="562.953125" y="231.386719"/>
<use xlink:href="#glyph-2-9" x="569.953125" y="231.386719"/>
</g>
<g fill="rgb(0%, 0%, 0%)" fill-opacity="1">
<use xlink:href="#glyph-1-9" x="543.953125" y="246.144531"/>
<use xlink:href="#glyph-1-12" x="550.953125" y="246.144531"/>
<use xlink:href="#glyph-1-13" x="557.953125" y="246.144531"/>
</g>
<g fill="rgb(0%, 0%, 0%)" fill-opacity="1">
<use xlink:href="#glyph-1-10" x="345.71875" y="270.058594"/>
<use xlink:href="#glyph-1-14" x="352.71875" y="270.058594"/>
<use xlink:href="#glyph-1-10" x="359.71875" y="270.058594"/>
</g>
</svg>
