<?xml version="1.0" encoding="UTF-8"?>
<svg xmlns="http://www.w3.org/2000/svg" xmlns:xlink="http://www.w3.org/1999/xlink" width="720" height="504" viewBox="0 0 720 504">
<defs>
<g>
<g id="glyph-0-0">
<path d="M 2.25 0 L 2.25 -11.25 L 11.25 -11.25 L 11.25 0 Z M 2.53125 -0.28125 L 10.96875 -0.28125 L 10.96875 -10.96875 L 2.53125 -10.96875 Z M 2.53125 -0.28125 "/>
</g>
<g id="glyph-0-1">
<path d="M 1.390625 0 L 1.390625 -12.890625 L 5.828125 -12.890625 C 6.828125 -12.890625 7.59375 -12.828125 8.125 -12.703125 C 8.863281 -12.535156 9.492188 -12.226562 10.015625 -11.78125 C 10.691406 -11.207031 11.195312 -10.472656 11.53125 -9.578125 C 11.875 -8.679688 12.046875 -7.660156 12.046875 -6.515625 C 12.046875 -5.535156 11.929688 -4.664062 11.703125 -3.90625 C 11.472656 -3.15625 11.175781 -2.53125 10.8125 -2.03125 C 10.457031 -1.539062 10.066406 -1.148438 9.640625 -0.859375 C 9.222656 -0.578125 8.710938 -0.363281 8.109375 -0.21875 C 7.503906 -0.0703125 6.8125 0 6.03125 0 Z M 3.09375 -1.515625 L 5.84375 -1.515625 C 6.695312 -1.515625 7.363281 -1.59375 7.84375 -1.75 C 8.320312 -1.914062 8.707031 -2.140625 9 -2.421875 C 9.40625 -2.828125 9.71875 -3.367188 9.9375 -4.046875 C 10.164062 -4.734375 10.28125 -5.566406 10.28125 -6.546875 C 10.28125 -7.890625 10.054688 -8.921875 9.609375 -9.640625 C 9.171875 -10.367188 8.632812 -10.851562 8 -11.09375 C 7.550781 -11.269531 6.816406 -11.359375 5.796875 -11.359375 L 3.09375 -11.359375 Z M 3.09375 -1.515625 "/>
</g>
<g id="glyph-0-2">
<path d="M 0.59375 -4.671875 C 0.59375 -6.398438 1.078125 -7.679688 2.046875 -8.515625 C 2.847656 -9.203125 3.820312 -9.546875 4.96875 -9.546875 C 6.257812 -9.546875 7.3125 -9.125 8.125 -8.28125 C 8.9375 -7.4375 9.34375 -6.273438 9.34375 -4.796875 C 9.34375 -3.597656 9.160156 -2.65625 8.796875 -1.96875 C 8.441406 -1.28125 7.921875 -0.742188 7.234375 -0.359375 C 6.546875 0.0234375 5.789062 0.21875 4.96875 0.21875 C 3.664062 0.21875 2.609375 -0.195312 1.796875 -1.03125 C 0.992188 -1.875 0.59375 -3.085938 0.59375 -4.671875 Z M 2.21875 -4.671875 C 2.21875 -3.472656 2.476562 -2.578125 3 -1.984375 C 3.519531 -1.390625 4.175781 -1.09375 4.96875 -1.09375 C 5.757812 -1.09375 6.414062 -1.390625 6.9375 -1.984375 C 7.457031 -2.585938 7.71875 -3.5 7.71875 -4.71875 C 7.71875 -5.875 7.453125 -6.75 6.921875 -7.34375 C 6.398438 -7.9375 5.75 -8.234375 4.96875 -8.234375 C 4.175781 -8.234375 3.519531 -7.9375 3 -7.34375 C 2.476562 -6.75 2.21875 -5.859375 2.21875 -4.671875 Z M 2.21875 -4.671875 "/>
</g>
<g id="glyph-0-3">
<path d="M 2.90625 0 L 0.046875 -9.328125 L 1.6875 -9.328125 L 3.171875 -3.953125 L 3.734375 -1.9375 C 3.753906 -2.039062 3.910156 -2.6875 4.203125 -3.875 L 5.703125 -9.328125 L 7.328125 -9.328125 L 8.71875 -3.921875 L 9.1875 -2.140625 L 9.71875 -3.9375 L 11.328125 -9.328125 L 12.859375 -9.328125 L 9.9375 0 L 8.296875 0 L 6.8125 -5.59375 L 6.453125 -7.1875 L 4.5625 0 Z M 2.90625 0 "/>
</g>
<g id="glyph-0-4">
<path d="M 1.1875 0 L 1.1875 -9.328125 L 2.609375 -9.328125 L 2.609375 -8 C 3.296875 -9.03125 4.285156 -9.546875 5.578125 -9.546875 C 6.140625 -9.546875 6.65625 -9.441406 7.125 -9.234375 C 7.601562 -9.035156 7.957031 -8.769531 8.1875 -8.4375 C 8.425781 -8.113281 8.59375 -7.726562 8.6875 -7.28125 C 8.738281 -6.988281 8.765625 -6.472656 8.765625 -5.734375 L 8.765625 0 L 7.1875 0 L 7.1875 -5.671875 C 7.1875 -6.316406 7.125 -6.800781 7 -7.125 C 6.882812 -7.445312 6.664062 -7.703125 6.34375 -7.890625 C 6.03125 -8.078125 5.664062 -8.171875 5.25 -8.171875 C 4.570312 -8.171875 3.988281 -7.957031 3.5 -7.53125 C 3.007812 -7.101562 2.765625 -6.289062 2.765625 -5.09375 L 2.765625 0 Z M 1.1875 0 "/>
</g>
<g id="glyph-0-5">
<path d="M 1.171875 0 L 1.171875 -9.328125 L 2.59375 -9.328125 L 2.59375 -7.921875 C 2.957031 -8.578125 3.289062 -9.007812 3.59375 -9.21875 C 3.90625 -9.4375 4.242188 -9.546875 4.609375 -9.546875 C 5.148438 -9.546875 5.691406 -9.375 6.234375 -9.03125 L 5.703125 -7.5625 C 5.304688 -7.789062 4.914062 -7.90625 4.53125 -7.90625 C 4.1875 -7.90625 3.875 -7.800781 3.59375 -7.59375 C 3.320312 -7.382812 3.128906 -7.097656 3.015625 -6.734375 C 2.835938 -6.171875 2.75 -5.554688 2.75 -4.890625 L 2.75 0 Z M 1.171875 0 "/>
</g>
<g id="glyph-0-6">
<path d="M 7.578125 -3 L 9.21875 -2.796875 C 8.957031 -1.847656 8.476562 -1.109375 7.78125 -0.578125 C 7.082031 -0.046875 6.191406 0.21875 5.109375 0.21875 C 3.742188 0.21875 2.660156 -0.203125 1.859375 -1.046875 C 1.054688 -1.890625 0.65625 -3.070312 0.65625 -4.59375 C 0.65625 -6.15625 1.054688 -7.367188 1.859375 -8.234375 C 2.671875 -9.109375 3.722656 -9.546875 5.015625 -9.546875 C 6.265625 -9.546875 7.285156 -9.117188 8.078125 -8.265625 C 8.867188 -7.421875 9.265625 -6.226562 9.265625 -4.6875 C 9.265625 -4.59375 9.257812 -4.453125 9.25 -4.265625 L 2.296875 -4.265625 C 2.347656 -3.234375 2.632812 -2.445312 3.15625 -1.90625 C 3.6875 -1.363281 4.335938 -1.09375 5.109375 -1.09375 C 5.691406 -1.09375 6.1875 -1.242188 6.59375 -1.546875 C 7.007812 -1.847656 7.335938 -2.332031 7.578125 -3 Z M 2.375 -5.5625 L 7.59375 -5.5625 C 7.519531 -6.34375 7.320312 -6.929688 7 -7.328125 C 6.488281 -7.941406 5.832031 -8.25 5.03125 -8.25 C 4.3125 -8.25 3.703125 -8.003906 3.203125 -7.515625 C 2.710938 -7.023438 2.4375 -6.375 2.375 -5.5625 Z M 2.375 -5.5625 "/>
</g>
<g id="glyph-0-7">
<path d="M 0.890625 0.78125 L 2.4375 1 C 2.5 1.476562 2.675781 1.828125 2.96875 2.046875 C 3.363281 2.335938 3.898438 2.484375 4.578125 2.484375 C 5.304688 2.484375 5.867188 2.332031 6.265625 2.03125 C 6.671875 1.738281 6.941406 1.332031 7.078125 0.8125 C 7.160156 0.488281 7.203125 -0.1875 7.203125 -1.21875 C 6.503906 -0.40625 5.640625 0 4.609375 0 C 3.328125 0 2.332031 -0.460938 1.625 -1.390625 C 0.925781 -2.316406 0.578125 -3.425781 0.578125 -4.71875 C 0.578125 -5.613281 0.738281 -6.4375 1.0625 -7.1875 C 1.382812 -7.9375 1.851562 -8.515625 2.46875 -8.921875 C 3.082031 -9.335938 3.800781 -9.546875 4.625 -9.546875 C 5.726562 -9.546875 6.632812 -9.097656 7.34375 -8.203125 L 7.34375 -9.328125 L 8.8125 -9.328125 L 8.8125 -1.265625 C 8.8125 0.191406 8.660156 1.222656 8.359375 1.828125 C 8.066406 2.429688 7.597656 2.90625 6.953125 3.25 C 6.316406 3.601562 5.53125 3.78125 4.59375 3.78125 C 3.476562 3.78125 2.578125 3.53125 1.890625 3.03125 C 1.203125 2.53125 0.867188 1.78125 0.890625 0.78125 Z M 2.203125 -4.828125 C 2.203125 -3.609375 2.445312 -2.71875 2.9375 -2.15625 C 3.425781 -1.59375 4.035156 -1.3125 4.765625 -1.3125 C 5.492188 -1.3125 6.101562 -1.585938 6.59375 -2.140625 C 7.082031 -2.703125 7.328125 -3.582031 7.328125 -4.78125 C 7.328125 -5.925781 7.070312 -6.785156 6.5625 -7.359375 C 6.0625 -7.941406 5.453125 -8.234375 4.734375 -8.234375 C 4.035156 -8.234375 3.4375 -7.945312 2.9375 -7.375 C 2.445312 -6.800781 2.203125 -5.953125 2.203125 -4.828125 Z M 2.203125 -4.828125 "/>
</g>
<g id="glyph-0-8">
<path d="M 7.296875 0 L 7.296875 -1.375 C 6.578125 -0.3125 5.59375 0.21875 4.34375 0.21875 C 3.789062 0.21875 3.273438 0.113281 2.796875 -0.09375 C 2.316406 -0.3125 1.960938 -0.578125 1.734375 -0.890625 C 1.503906 -1.210938 1.34375 -1.609375 1.25 -2.078125 C 1.1875 -2.390625 1.15625 -2.878906 1.15625 -3.546875 L 1.15625 -9.328125 L 2.734375 -9.328125 L 2.734375 -4.15625 C 2.734375 -3.332031 2.765625 -2.773438 2.828125 -2.484375 C 2.929688 -2.066406 3.144531 -1.738281 3.46875 -1.5 C 3.789062 -1.269531 4.1875 -1.15625 4.65625 -1.15625 C 5.132812 -1.15625 5.582031 -1.273438 6 -1.515625 C 6.414062 -1.753906 6.707031 -2.082031 6.875 -2.5 C 7.050781 -2.925781 7.140625 -3.535156 7.140625 -4.328125 L 7.140625 -9.328125 L 8.71875 -9.328125 L 8.71875 0 Z M 7.296875 0 "/>
</g>
<g id="glyph-0-9">
<path d="M 1.15625 0 L 1.15625 -12.890625 L 2.734375 -12.890625 L 2.734375 0 Z M 1.15625 0 "/>
</g>
<g id="glyph-0-10">
<path d="M 7.28125 -1.15625 C 6.695312 -0.65625 6.128906 -0.300781 5.578125 -0.09375 C 5.035156 0.113281 4.457031 0.21875 3.84375 0.21875 C 2.8125 0.21875 2.019531 -0.03125 1.46875 -0.53125 C 0.925781 -1.039062 0.65625 -1.6875 0.65625 -2.46875 C 0.65625 -2.914062 0.757812 -3.328125 0.96875 -3.703125 C 1.175781 -4.085938 1.445312 -4.394531 1.78125 -4.625 C 2.113281 -4.851562 2.492188 -5.023438 2.921875 -5.140625 C 3.234375 -5.222656 3.703125 -5.300781 4.328125 -5.375 C 5.597656 -5.53125 6.535156 -5.710938 7.140625 -5.921875 C 7.148438 -6.140625 7.15625 -6.28125 7.15625 -6.34375 C 7.15625 -6.976562 7.003906 -7.429688 6.703125 -7.703125 C 6.296875 -8.054688 5.695312 -8.234375 4.90625 -8.234375 C 4.15625 -8.234375 3.601562 -8.101562 3.25 -7.84375 C 2.894531 -7.582031 2.632812 -7.117188 2.46875 -6.453125 L 0.921875 -6.671875 C 1.066406 -7.335938 1.296875 -7.875 1.609375 -8.28125 C 1.929688 -8.6875 2.394531 -9 3 -9.21875 C 3.613281 -9.4375 4.328125 -9.546875 5.140625 -9.546875 C 5.929688 -9.546875 6.578125 -9.453125 7.078125 -9.265625 C 7.578125 -9.078125 7.941406 -8.835938 8.171875 -8.546875 C 8.410156 -8.265625 8.578125 -7.910156 8.671875 -7.484375 C 8.722656 -7.210938 8.75 -6.722656 8.75 -6.015625 L 8.75 -3.90625 C 8.75 -2.4375 8.78125 -1.503906 8.84375 -1.109375 C 8.914062 -0.722656 9.050781 -0.351562 9.25 0 L 7.59375 0 C 7.425781 -0.332031 7.320312 -0.71875 7.28125 -1.15625 Z M 7.140625 -4.6875 C 6.566406 -4.445312 5.707031 -4.25 4.5625 -4.09375 C 3.914062 -4 3.457031 -3.890625 3.1875 -3.765625 C 2.914062 -3.648438 2.707031 -3.476562 2.5625 -3.25 C 2.414062 -3.03125 2.34375 -2.78125 2.34375 -2.5 C 2.34375 -2.082031 2.5 -1.734375 2.8125 -1.453125 C 3.132812 -1.171875 3.601562 -1.03125 4.21875 -1.03125 C 4.832031 -1.03125 5.375 -1.160156 5.84375 -1.421875 C 6.320312 -1.691406 6.671875 -2.054688 6.890625 -2.515625 C 7.054688 -2.878906 7.140625 -3.410156 7.140625 -4.109375 Z M 7.140625 -4.6875 "/>
</g>
<g id="glyph-0-11">
<path d="M 4.640625 -1.421875 L 4.875 -0.015625 C 4.425781 0.078125 4.023438 0.125 3.671875 0.125 C 3.097656 0.125 2.648438 0.0351562 2.328125 -0.140625 C 2.015625 -0.328125 1.796875 -0.566406 1.671875 -0.859375 C 1.546875 -1.160156 1.484375 -1.785156 1.484375 -2.734375 L 1.484375 -8.109375 L 0.3125 -8.109375 L 0.3125 -9.328125 L 1.484375 -9.328125 L 1.484375 -11.640625 L 3.046875 -12.59375 L 3.046875 -9.328125 L 4.640625 -9.328125 L 4.640625 -8.109375 L 3.046875 -8.109375 L 3.046875 -2.640625 C 3.046875 -2.191406 3.070312 -1.898438 3.125 -1.765625 C 3.1875 -1.640625 3.28125 -1.539062 3.40625 -1.46875 C 3.53125 -1.394531 3.710938 -1.359375 3.953125 -1.359375 C 4.117188 -1.359375 4.347656 -1.378906 4.640625 -1.421875 Z M 4.640625 -1.421875 "/>
</g>
<g id="glyph-0-12">
<path d="M 7.25 0 L 7.25 -1.171875 C 6.65625 -0.242188 5.78125 0.21875 4.625 0.21875 C 3.882812 0.21875 3.203125 0.015625 2.578125 -0.390625 C 1.953125 -0.804688 1.46875 -1.378906 1.125 -2.109375 C 0.78125 -2.847656 0.609375 -3.695312 0.609375 -4.65625 C 0.609375 -5.59375 0.765625 -6.4375 1.078125 -7.1875 C 1.390625 -7.945312 1.851562 -8.53125 2.46875 -8.9375 C 3.09375 -9.34375 3.789062 -9.546875 4.5625 -9.546875 C 5.125 -9.546875 5.625 -9.425781 6.0625 -9.1875 C 6.5 -8.945312 6.859375 -8.640625 7.140625 -8.265625 L 7.140625 -12.890625 L 8.703125 -12.890625 L 8.703125 0 Z M 2.234375 -4.65625 C 2.234375 -3.457031 2.484375 -2.5625 2.984375 -1.96875 C 3.492188 -1.382812 4.09375 -1.09375 4.78125 -1.09375 C 5.46875 -1.09375 6.050781 -1.375 6.53125 -1.9375 C 7.019531 -2.5 7.265625 -3.363281 7.265625 -4.53125 C 7.265625 -5.800781 7.019531 -6.734375 6.53125 -7.328125 C 6.039062 -7.929688 5.4375 -8.234375 4.71875 -8.234375 C 4.007812 -8.234375 3.414062 -7.945312 2.9375 -7.375 C 2.46875 -6.800781 2.234375 -5.894531 2.234375 -4.65625 Z M 2.234375 -4.65625 "/>
</g>
<g id="glyph-0-13">
</g>
<g id="glyph-0-14">
<path d="M 0.546875 -2.78125 L 2.125 -3.03125 C 2.207031 -2.40625 2.445312 -1.925781 2.84375 -1.59375 C 3.25 -1.257812 3.8125 -1.09375 4.53125 -1.09375 C 5.257812 -1.09375 5.800781 -1.238281 6.15625 -1.53125 C 6.507812 -1.832031 6.6875 -2.179688 6.6875 -2.578125 C 6.6875 -2.929688 6.53125 -3.210938 6.21875 -3.421875 C 6 -3.554688 5.457031 -3.734375 4.59375 -3.953125 C 3.4375 -4.242188 2.632812 -4.492188 2.1875 -4.703125 C 1.738281 -4.921875 1.394531 -5.21875 1.15625 -5.59375 C 0.925781 -5.976562 0.8125 -6.398438 0.8125 -6.859375 C 0.8125 -7.273438 0.90625 -7.660156 1.09375 -8.015625 C 1.289062 -8.367188 1.550781 -8.660156 1.875 -8.890625 C 2.125 -9.078125 2.460938 -9.234375 2.890625 -9.359375 C 3.316406 -9.484375 3.769531 -9.546875 4.25 -9.546875 C 4.988281 -9.546875 5.632812 -9.4375 6.1875 -9.21875 C 6.738281 -9.007812 7.144531 -8.722656 7.40625 -8.359375 C 7.675781 -8.003906 7.859375 -7.523438 7.953125 -6.921875 L 6.40625 -6.71875 C 6.332031 -7.195312 6.128906 -7.570312 5.796875 -7.84375 C 5.460938 -8.113281 4.988281 -8.25 4.375 -8.25 C 3.644531 -8.25 3.125 -8.128906 2.8125 -7.890625 C 2.5 -7.648438 2.34375 -7.367188 2.34375 -7.046875 C 2.34375 -6.835938 2.410156 -6.648438 2.546875 -6.484375 C 2.671875 -6.316406 2.867188 -6.175781 3.140625 -6.0625 C 3.304688 -6.007812 3.773438 -5.875 4.546875 -5.65625 C 5.660156 -5.363281 6.4375 -5.117188 6.875 -4.921875 C 7.320312 -4.734375 7.671875 -4.457031 7.921875 -4.09375 C 8.179688 -3.726562 8.3125 -3.28125 8.3125 -2.75 C 8.3125 -2.21875 8.15625 -1.71875 7.84375 -1.25 C 7.539062 -0.78125 7.097656 -0.414062 6.515625 -0.15625 C 5.929688 0.09375 5.273438 0.21875 4.546875 0.21875 C 3.328125 0.21875 2.398438 -0.03125 1.765625 -0.53125 C 1.128906 -1.039062 0.722656 -1.789062 0.546875 -2.78125 Z M 0.546875 -2.78125 "/>
</g>
<g id="glyph-0-15">
<path d="M 1.203125 -11.0625 L 1.203125 -12.890625 L 2.78125 -12.890625 L 2.78125 -11.0625 Z M 1.203125 0 L 1.203125 -9.328125 L 2.78125 -9.328125 L 2.78125 0 Z M 1.203125 0 "/>
</g>
<g id="glyph-0-16">
<path d="M 1.109375 3.59375 L 0.9375 2.109375 C 1.28125 2.203125 1.582031 2.25 1.84375 2.25 C 2.195312 2.25 2.476562 2.191406 2.6875 2.078125 C 2.894531 1.960938 3.066406 1.796875 3.203125 1.578125 C 3.304688 1.421875 3.46875 1.03125 3.6875 0.40625 C 3.71875 0.3125 3.765625 0.179688 3.828125 0.015625 L 0.296875 -9.328125 L 2 -9.328125 L 3.9375 -3.921875 C 4.1875 -3.242188 4.410156 -2.523438 4.609375 -1.765625 C 4.796875 -2.492188 5.015625 -3.203125 5.265625 -3.890625 L 7.265625 -9.328125 L 8.84375 -9.328125 L 5.296875 0.15625 C 4.910156 1.1875 4.613281 1.894531 4.40625 2.28125 C 4.125 2.800781 3.800781 3.179688 3.4375 3.421875 C 3.070312 3.660156 2.640625 3.78125 2.140625 3.78125 C 1.828125 3.78125 1.484375 3.71875 1.109375 3.59375 Z M 1.109375 3.59375 "/>
</g>
<g id="glyph-0-17">
<path d="M 6.703125 0 L 5.125 0 L 5.125 -10.078125 C 4.738281 -9.710938 4.238281 -9.347656 3.625 -8.984375 C 3.007812 -8.628906 2.453125 -8.359375 1.953125 -8.171875 L 1.953125 -9.703125 C 2.835938 -10.117188 3.613281 -10.625 4.28125 -11.21875 C 4.945312 -11.8125 5.414062 -12.382812 5.6875 -12.9375 L 6.703125 -12.9375 Z M 6.703125 0 "/>
</g>
<g id="glyph-0-18">
<path d="M 9.0625 -1.515625 L 9.0625 0 L 0.546875 0 C 0.535156 -0.382812 0.597656 -0.75 0.734375 -1.09375 C 0.953125 -1.675781 1.296875 -2.25 1.765625 -2.8125 C 2.242188 -3.375 2.9375 -4.023438 3.84375 -4.765625 C 5.238281 -5.910156 6.179688 -6.816406 6.671875 -7.484375 C 7.171875 -8.160156 7.421875 -8.796875 7.421875 -9.390625 C 7.421875 -10.023438 7.195312 -10.554688 6.75 -10.984375 C 6.300781 -11.410156 5.71875 -11.625 5 -11.625 C 4.226562 -11.625 3.613281 -11.394531 3.15625 -10.9375 C 2.707031 -10.476562 2.476562 -9.847656 2.46875 -9.046875 L 0.84375 -9.21875 C 0.957031 -10.425781 1.375 -11.347656 2.09375 -11.984375 C 2.820312 -12.617188 3.800781 -12.9375 5.03125 -12.9375 C 6.257812 -12.9375 7.234375 -12.59375 7.953125 -11.90625 C 8.679688 -11.21875 9.046875 -10.367188 9.046875 -9.359375 C 9.046875 -8.847656 8.9375 -8.34375 8.71875 -7.84375 C 8.507812 -7.34375 8.160156 -6.816406 7.671875 -6.265625 C 7.179688 -5.710938 6.367188 -4.957031 5.234375 -4 C 4.285156 -3.195312 3.675781 -2.65625 3.40625 -2.375 C 3.132812 -2.09375 2.914062 -1.804688 2.75 -1.515625 Z M 9.0625 -1.515625 "/>
</g>
<g id="glyph-0-19">
<path d="M 5.8125 0 L 5.8125 -3.078125 L 0.234375 -3.078125 L 0.234375 -4.53125 L 6.109375 -12.890625 L 7.40625 -12.890625 L 7.40625 -4.53125 L 9.140625 -4.53125 L 9.140625 -3.078125 L 7.40625 -3.078125 L 7.40625 0 Z M 5.8125 -4.53125 L 5.8125 -10.34375 L 1.78125 -4.53125 Z M 5.8125 -4.53125 "/>
</g>
<g id="glyph-0-20">
<path d="M 1.1875 0 L 1.1875 -12.890625 L 2.765625 -12.890625 L 2.765625 -8.265625 C 3.503906 -9.117188 4.4375 -9.546875 5.5625 -9.546875 C 6.25 -9.546875 6.847656 -9.410156 7.359375 -9.140625 C 7.867188 -8.867188 8.234375 -8.488281 8.453125 -8 C 8.679688 -7.519531 8.796875 -6.828125 8.796875 -5.921875 L 8.796875 0 L 7.203125 0 L 7.203125 -5.921875 C 7.203125 -6.710938 7.03125 -7.285156 6.6875 -7.640625 C 6.34375 -8.003906 5.859375 -8.1875 5.234375 -8.1875 C 4.765625 -8.1875 4.320312 -8.0625 3.90625 -7.8125 C 3.5 -7.570312 3.207031 -7.242188 3.03125 -6.828125 C 2.851562 -6.410156 2.765625 -5.835938 2.765625 -5.109375 L 2.765625 0 Z M 1.1875 0 "/>
</g>
<g id="glyph-1-0">
<path d="M 1.5 0 L 1.5 -7.5 L 7.5 -7.5 L 7.5 0 Z M 1.6875 -0.1875 L 7.3125 -0.1875 L 7.3125 -7.3125 L 1.6875 -7.3125 Z M 1.6875 -0.1875 "/>
</g>
<g id="glyph-1-1">
<path d="M 0.921875 0 L 0.921875 -8.59375 L 3.890625 -8.59375 C 4.554688 -8.59375 5.066406 -8.550781 5.421875 -8.46875 C 5.910156 -8.351562 6.328125 -8.148438 6.671875 -7.859375 C 7.128906 -7.472656 7.46875 -6.976562 7.6875 -6.375 C 7.914062 -5.78125 8.03125 -5.101562 8.03125 -4.34375 C 8.03125 -3.6875 7.953125 -3.109375 7.796875 -2.609375 C 7.648438 -2.109375 7.457031 -1.691406 7.21875 -1.359375 C 6.976562 -1.023438 6.710938 -0.765625 6.421875 -0.578125 C 6.140625 -0.390625 5.800781 -0.242188 5.40625 -0.140625 C 5.007812 -0.046875 4.550781 0 4.03125 0 Z M 2.0625 -1.015625 L 3.890625 -1.015625 C 4.460938 -1.015625 4.910156 -1.066406 5.234375 -1.171875 C 5.554688 -1.273438 5.8125 -1.425781 6 -1.625 C 6.269531 -1.882812 6.476562 -2.242188 6.625 -2.703125 C 6.78125 -3.160156 6.859375 -3.710938 6.859375 -4.359375 C 6.859375 -5.253906 6.707031 -5.941406 6.40625 -6.421875 C 6.113281 -6.910156 5.757812 -7.238281 5.34375 -7.40625 C 5.03125 -7.519531 4.539062 -7.578125 3.875 -7.578125 L 2.0625 -7.578125 Z M 2.0625 -1.015625 "/>
</g>
<g id="glyph-1-2">
<path d="M 1.765625 0 L 0.78125 0 L 0.78125 -8.59375 L 1.84375 -8.59375 L 1.84375 -5.53125 C 2.289062 -6.082031 2.859375 -6.359375 3.546875 -6.359375 C 3.929688 -6.359375 4.289062 -6.28125 4.625 -6.125 C 4.96875 -5.976562 5.25 -5.765625 5.46875 -5.484375 C 5.695312 -5.203125 5.875 -4.863281 6 -4.46875 C 6.125 -4.070312 6.1875 -3.648438 6.1875 -3.203125 C 6.1875 -2.140625 5.921875 -1.316406 5.390625 -0.734375 C 4.859375 -0.148438 4.226562 0.140625 3.5 0.140625 C 2.757812 0.140625 2.179688 -0.164062 1.765625 -0.78125 Z M 1.75 -3.15625 C 1.75 -2.414062 1.851562 -1.878906 2.0625 -1.546875 C 2.394531 -1.003906 2.84375 -0.734375 3.40625 -0.734375 C 3.863281 -0.734375 4.257812 -0.929688 4.59375 -1.328125 C 4.9375 -1.722656 5.109375 -2.320312 5.109375 -3.125 C 5.109375 -3.9375 4.945312 -4.535156 4.625 -4.921875 C 4.300781 -5.304688 3.910156 -5.5 3.453125 -5.5 C 2.992188 -5.5 2.59375 -5.296875 2.25 -4.890625 C 1.914062 -4.492188 1.75 -3.914062 1.75 -3.15625 Z M 1.75 -3.15625 "/>
</g>
<g id="glyph-1-3">
<path d="M 0.796875 -7.375 L 0.796875 -8.59375 L 1.859375 -8.59375 L 1.859375 -7.375 Z M 0.796875 0 L 0.796875 -6.21875 L 1.859375 -6.21875 L 1.859375 0 Z M 0.796875 0 "/>
</g>
<g id="glyph-1-4">
<path d="M 0.796875 2.390625 L 0.796875 -6.21875 L 1.75 -6.21875 L 1.75 -5.421875 C 1.976562 -5.734375 2.234375 -5.96875 2.515625 -6.125 C 2.804688 -6.28125 3.15625 -6.359375 3.5625 -6.359375 C 4.09375 -6.359375 4.5625 -6.222656 4.96875 -5.953125 C 5.375 -5.679688 5.675781 -5.296875 5.875 -4.796875 C 6.082031 -4.296875 6.1875 -3.75 6.1875 -3.15625 C 6.1875 -2.519531 6.070312 -1.945312 5.84375 -1.4375 C 5.625 -0.925781 5.296875 -0.535156 4.859375 -0.265625 C 4.421875 0.00390625 3.960938 0.140625 3.484375 0.140625 C 3.128906 0.140625 2.8125 0.0664062 2.53125 -0.078125 C 2.25 -0.234375 2.019531 -0.421875 1.84375 -0.640625 L 1.84375 2.390625 Z M 1.75 -3.078125 C 1.75 -2.273438 1.910156 -1.679688 2.234375 -1.296875 C 2.554688 -0.921875 2.945312 -0.734375 3.40625 -0.734375 C 3.875 -0.734375 4.273438 -0.929688 4.609375 -1.328125 C 4.941406 -1.722656 5.109375 -2.335938 5.109375 -3.171875 C 5.109375 -3.960938 4.945312 -4.550781 4.625 -4.9375 C 4.300781 -5.332031 3.910156 -5.53125 3.453125 -5.53125 C 3.003906 -5.53125 2.609375 -5.320312 2.265625 -4.90625 C 1.921875 -4.488281 1.75 -3.878906 1.75 -3.078125 Z M 1.75 -3.078125 "/>
</g>
<g id="glyph-1-5">
<path d="M 4.46875 0 L 3.421875 0 L 3.421875 -6.71875 C 3.160156 -6.476562 2.820312 -6.234375 2.40625 -5.984375 C 2 -5.742188 1.632812 -5.566406 1.3125 -5.453125 L 1.3125 -6.46875 C 1.894531 -6.75 2.40625 -7.082031 2.84375 -7.46875 C 3.289062 -7.863281 3.609375 -8.25 3.796875 -8.625 L 4.46875 -8.625 Z M 4.46875 0 "/>
</g>
<g id="glyph-1-6">
<path d="M 0.796875 0 L 0.796875 -6.21875 L 1.734375 -6.21875 L 1.734375 -5.34375 C 1.929688 -5.65625 2.191406 -5.898438 2.515625 -6.078125 C 2.835938 -6.265625 3.207031 -6.359375 3.625 -6.359375 C 4.082031 -6.359375 4.457031 -6.265625 4.75 -6.078125 C 5.050781 -5.890625 5.257812 -5.625 5.375 -5.28125 C 5.875 -6 6.515625 -6.359375 7.296875 -6.359375 C 7.921875 -6.359375 8.394531 -6.1875 8.71875 -5.84375 C 9.050781 -5.507812 9.21875 -4.984375 9.21875 -4.265625 L 9.21875 0 L 8.171875 0 L 8.171875 -3.921875 C 8.171875 -4.335938 8.132812 -4.640625 8.0625 -4.828125 C 8 -5.015625 7.878906 -5.164062 7.703125 -5.28125 C 7.523438 -5.394531 7.3125 -5.453125 7.0625 -5.453125 C 6.625 -5.453125 6.257812 -5.304688 5.96875 -5.015625 C 5.6875 -4.722656 5.546875 -4.253906 5.546875 -3.609375 L 5.546875 0 L 4.484375 0 L 4.484375 -4.046875 C 4.484375 -4.515625 4.394531 -4.863281 4.21875 -5.09375 C 4.050781 -5.332031 3.773438 -5.453125 3.390625 -5.453125 C 3.085938 -5.453125 2.8125 -5.375 2.5625 -5.21875 C 2.3125 -5.0625 2.128906 -4.832031 2.015625 -4.53125 C 1.898438 -4.226562 1.84375 -3.796875 1.84375 -3.234375 L 1.84375 0 Z M 0.796875 0 "/>
</g>
<g id="glyph-1-7">
<path d="M 0.375 -1.859375 L 1.40625 -2.015625 C 1.46875 -1.597656 1.628906 -1.28125 1.890625 -1.0625 C 2.160156 -0.84375 2.539062 -0.734375 3.03125 -0.734375 C 3.507812 -0.734375 3.863281 -0.828125 4.09375 -1.015625 C 4.332031 -1.210938 4.453125 -1.445312 4.453125 -1.71875 C 4.453125 -1.957031 4.347656 -2.144531 4.140625 -2.28125 C 3.992188 -2.375 3.632812 -2.492188 3.0625 -2.640625 C 2.289062 -2.835938 1.753906 -3.003906 1.453125 -3.140625 C 1.160156 -3.285156 0.9375 -3.484375 0.78125 -3.734375 C 0.625 -3.984375 0.546875 -4.265625 0.546875 -4.578125 C 0.546875 -4.847656 0.609375 -5.101562 0.734375 -5.34375 C 0.859375 -5.582031 1.03125 -5.78125 1.25 -5.9375 C 1.414062 -6.050781 1.640625 -6.148438 1.921875 -6.234375 C 2.203125 -6.316406 2.507812 -6.359375 2.84375 -6.359375 C 3.320312 -6.359375 3.742188 -6.285156 4.109375 -6.140625 C 4.484375 -6.003906 4.757812 -5.816406 4.9375 -5.578125 C 5.113281 -5.335938 5.234375 -5.019531 5.296875 -4.625 L 4.265625 -4.484375 C 4.222656 -4.796875 4.085938 -5.039062 3.859375 -5.21875 C 3.640625 -5.40625 3.320312 -5.5 2.90625 -5.5 C 2.425781 -5.5 2.082031 -5.414062 1.875 -5.25 C 1.664062 -5.09375 1.5625 -4.90625 1.5625 -4.6875 C 1.5625 -4.550781 1.601562 -4.429688 1.6875 -4.328125 C 1.78125 -4.210938 1.914062 -4.117188 2.09375 -4.046875 C 2.195312 -4.003906 2.507812 -3.914062 3.03125 -3.78125 C 3.78125 -3.570312 4.300781 -3.40625 4.59375 -3.28125 C 4.882812 -3.15625 5.113281 -2.972656 5.28125 -2.734375 C 5.445312 -2.492188 5.53125 -2.191406 5.53125 -1.828125 C 5.53125 -1.472656 5.425781 -1.140625 5.21875 -0.828125 C 5.019531 -0.523438 4.726562 -0.285156 4.34375 -0.109375 C 3.957031 0.0546875 3.519531 0.140625 3.03125 0.140625 C 2.21875 0.140625 1.597656 -0.0234375 1.171875 -0.359375 C 0.753906 -0.703125 0.488281 -1.203125 0.375 -1.859375 Z M 0.375 -1.859375 "/>
</g>
<g id="glyph-1-8">
<path d="M 3.09375 -0.9375 L 3.25 -0.015625 C 2.945312 0.046875 2.679688 0.078125 2.453125 0.078125 C 2.066406 0.078125 1.769531 0.0195312 1.5625 -0.09375 C 1.351562 -0.21875 1.203125 -0.378906 1.109375 -0.578125 C 1.023438 -0.773438 0.984375 -1.191406 0.984375 -1.828125 L 0.984375 -5.40625 L 0.21875 -5.40625 L 0.21875 -6.21875 L 0.984375 -6.21875 L 0.984375 -7.765625 L 2.03125 -8.390625 L 2.03125 -6.21875 L 3.09375 -6.21875 L 3.09375 -5.40625 L 2.03125 -5.40625 L 2.03125 -1.765625 C 2.03125 -1.460938 2.046875 -1.269531 2.078125 -1.1875 C 2.117188 -1.101562 2.179688 -1.035156 2.265625 -0.984375 C 2.347656 -0.929688 2.46875 -0.90625 2.625 -0.90625 C 2.75 -0.90625 2.90625 -0.914062 3.09375 -0.9375 Z M 3.09375 -0.9375 "/>
</g>
<g id="glyph-1-9">
<path d="M 6.046875 -1.015625 L 6.046875 0 L 0.359375 0 C 0.359375 -0.25 0.398438 -0.492188 0.484375 -0.734375 C 0.628906 -1.117188 0.859375 -1.5 1.171875 -1.875 C 1.492188 -2.25 1.957031 -2.679688 2.5625 -3.171875 C 3.5 -3.941406 4.128906 -4.550781 4.453125 -5 C 4.785156 -5.445312 4.953125 -5.867188 4.953125 -6.265625 C 4.953125 -6.679688 4.800781 -7.03125 4.5 -7.3125 C 4.195312 -7.601562 3.804688 -7.75 3.328125 -7.75 C 2.816406 -7.75 2.410156 -7.597656 2.109375 -7.296875 C 1.804688 -6.992188 1.648438 -6.570312 1.640625 -6.03125 L 0.5625 -6.140625 C 0.632812 -6.953125 0.910156 -7.566406 1.390625 -7.984375 C 1.878906 -8.410156 2.535156 -8.625 3.359375 -8.625 C 4.179688 -8.625 4.832031 -8.394531 5.3125 -7.9375 C 5.789062 -7.476562 6.03125 -6.910156 6.03125 -6.234375 C 6.03125 -5.890625 5.957031 -5.550781 5.8125 -5.21875 C 5.675781 -4.894531 5.441406 -4.546875 5.109375 -4.171875 C 4.785156 -3.804688 4.25 -3.304688 3.5 -2.671875 C 2.863281 -2.140625 2.453125 -1.773438 2.265625 -1.578125 C 2.085938 -1.390625 1.941406 -1.203125 1.828125 -1.015625 Z M 6.046875 -1.015625 "/>
</g>
<g id="glyph-1-10">
<path d="M 0.5 -2.25 L 1.609375 -2.34375 C 1.691406 -1.800781 1.878906 -1.394531 2.171875 -1.125 C 2.472656 -0.851562 2.835938 -0.71875 3.265625 -0.71875 C 3.765625 -0.71875 4.191406 -0.910156 4.546875 -1.296875 C 4.898438 -1.679688 5.078125 -2.1875 5.078125 -2.8125 C 5.078125 -3.414062 4.90625 -3.890625 4.5625 -4.234375 C 4.226562 -4.585938 3.785156 -4.765625 3.234375 -4.765625 C 2.898438 -4.765625 2.59375 -4.6875 2.3125 -4.53125 C 2.039062 -4.375 1.828125 -4.175781 1.671875 -3.9375 L 0.6875 -4.0625 L 1.515625 -8.46875 L 5.796875 -8.46875 L 5.796875 -7.46875 L 2.359375 -7.46875 L 1.90625 -5.15625 C 2.414062 -5.519531 2.953125 -5.703125 3.515625 -5.703125 C 4.265625 -5.703125 4.894531 -5.441406 5.40625 -4.921875 C 5.925781 -4.398438 6.1875 -3.726562 6.1875 -2.90625 C 6.1875 -2.132812 5.960938 -1.460938 5.515625 -0.890625 C 4.960938 -0.203125 4.210938 0.140625 3.265625 0.140625 C 2.484375 0.140625 1.84375 -0.078125 1.34375 -0.515625 C 0.851562 -0.953125 0.570312 -1.53125 0.5 -2.25 Z M 0.5 -2.25 "/>
</g>
<g id="glyph-1-11">
<path d="M 0.5625 -7.46875 L 0.5625 -8.484375 L 6.125 -8.484375 L 6.125 -7.65625 C 5.582031 -7.070312 5.039062 -6.296875 4.5 -5.328125 C 3.96875 -4.367188 3.554688 -3.378906 3.265625 -2.359375 C 3.046875 -1.640625 2.910156 -0.851562 2.859375 0 L 1.765625 0 C 1.773438 -0.675781 1.90625 -1.492188 2.15625 -2.453125 C 2.414062 -3.410156 2.78125 -4.332031 3.25 -5.21875 C 3.726562 -6.101562 4.238281 -6.851562 4.78125 -7.46875 Z M 0.5625 -7.46875 "/>
</g>
<g id="glyph-1-12">
<path d="M 3.875 0 L 3.875 -2.0625 L 0.15625 -2.0625 L 0.15625 -3.03125 L 4.078125 -8.59375 L 4.9375 -8.59375 L 4.9375 -3.03125 L 6.09375 -3.03125 L 6.09375 -2.0625 L 4.9375 -2.0625 L 4.9375 0 Z M 3.875 -3.03125 L 3.875 -6.890625 L 1.1875 -3.03125 Z M 3.875 -3.03125 "/>
</g>
<g id="glyph-1-13">
<path d="M 0.65625 -1.984375 L 1.671875 -2.078125 C 1.753906 -1.597656 1.914062 -1.25 2.15625 -1.03125 C 2.40625 -0.820312 2.71875 -0.71875 3.09375 -0.71875 C 3.414062 -0.71875 3.695312 -0.789062 3.9375 -0.9375 C 4.1875 -1.09375 4.390625 -1.289062 4.546875 -1.53125 C 4.703125 -1.78125 4.832031 -2.113281 4.9375 -2.53125 C 5.039062 -2.957031 5.09375 -3.390625 5.09375 -3.828125 C 5.09375 -3.878906 5.09375 -3.953125 5.09375 -4.046875 C 4.882812 -3.710938 4.597656 -3.4375 4.234375 -3.21875 C 3.867188 -3.007812 3.472656 -2.90625 3.046875 -2.90625 C 2.328125 -2.90625 1.722656 -3.160156 1.234375 -3.671875 C 0.742188 -4.191406 0.5 -4.875 0.5 -5.71875 C 0.5 -6.59375 0.753906 -7.296875 1.265625 -7.828125 C 1.785156 -8.359375 2.429688 -8.625 3.203125 -8.625 C 3.753906 -8.625 4.257812 -8.472656 4.71875 -8.171875 C 5.1875 -7.867188 5.539062 -7.4375 5.78125 -6.875 C 6.019531 -6.320312 6.140625 -5.519531 6.140625 -4.46875 C 6.140625 -3.375 6.019531 -2.5 5.78125 -1.84375 C 5.550781 -1.195312 5.195312 -0.703125 4.71875 -0.359375 C 4.25 -0.0234375 3.703125 0.140625 3.078125 0.140625 C 2.398438 0.140625 1.847656 -0.0390625 1.421875 -0.40625 C 0.992188 -0.78125 0.738281 -1.304688 0.65625 -1.984375 Z M 4.96875 -5.78125 C 4.96875 -6.382812 4.804688 -6.863281 4.484375 -7.21875 C 4.171875 -7.570312 3.785156 -7.75 3.328125 -7.75 C 2.859375 -7.75 2.445312 -7.554688 2.09375 -7.171875 C 1.75 -6.796875 1.578125 -6.300781 1.578125 -5.6875 C 1.578125 -5.144531 1.742188 -4.703125 2.078125 -4.359375 C 2.410156 -4.015625 2.816406 -3.84375 3.296875 -3.84375 C 3.785156 -3.84375 4.1875 -4.015625 4.5 -4.359375 C 4.8125 -4.703125 4.96875 -5.175781 4.96875 -5.78125 Z M 4.96875 -5.78125 "/>
</g>
<g id="glyph-2-0">
<path d="M 1.5 0 L 1.5 -7.5 L 7.5 -7.5 L 7.5 0 Z M 1.6875 -0.1875 L 7.3125 -0.1875 L 7.3125 -7.3125 L 1.6875 -7.3125 Z M 1.6875 -0.1875 "/>
</g>
<g id="glyph-2-1">
<path d="M 0.515625 0 L 2.328125 -8.59375 L 4.640625 -8.59375 C 5.285156 -8.59375 5.695312 -8.582031 5.875 -8.5625 C 6.226562 -8.53125 6.546875 -8.457031 6.828125 -8.34375 C 7.109375 -8.238281 7.359375 -8.085938 7.578125 -7.890625 C 7.804688 -7.691406 8.003906 -7.453125 8.171875 -7.171875 C 8.335938 -6.890625 8.46875 -6.566406 8.5625 -6.203125 C 8.65625 -5.847656 8.703125 -5.457031 8.703125 -5.03125 C 8.703125 -4.101562 8.523438 -3.28125 8.171875 -2.5625 C 7.816406 -1.84375 7.367188 -1.273438 6.828125 -0.859375 C 6.421875 -0.523438 5.894531 -0.28125 5.25 -0.125 C 4.875 -0.0390625 4.304688 0 3.546875 0 Z M 2.578125 -1.390625 L 3.46875 -1.390625 C 4.125 -1.390625 4.597656 -1.425781 4.890625 -1.5 C 5.179688 -1.582031 5.445312 -1.734375 5.6875 -1.953125 C 6.03125 -2.265625 6.320312 -2.6875 6.5625 -3.21875 C 6.800781 -3.75 6.921875 -4.367188 6.921875 -5.078125 C 6.921875 -5.691406 6.820312 -6.148438 6.625 -6.453125 C 6.425781 -6.765625 6.179688 -6.96875 5.890625 -7.0625 C 5.691406 -7.132812 5.332031 -7.171875 4.8125 -7.171875 L 3.78125 -7.171875 Z M 2.578125 -1.390625 "/>
</g>
<g id="glyph-2-2">
<path d="M 0.4375 0 L 2.234375 -8.59375 L 3.921875 -8.59375 L 3.3125 -5.71875 C 3.625 -5.957031 3.910156 -6.125 4.171875 -6.21875 C 4.441406 -6.320312 4.734375 -6.375 5.046875 -6.375 C 5.703125 -6.375 6.226562 -6.148438 6.625 -5.703125 C 7.019531 -5.265625 7.21875 -4.628906 7.21875 -3.796875 C 7.21875 -3.222656 7.125 -2.671875 6.9375 -2.140625 C 6.75 -1.609375 6.5 -1.175781 6.1875 -0.84375 C 5.882812 -0.507812 5.5625 -0.257812 5.21875 -0.09375 C 4.875 0.0625 4.515625 0.140625 4.140625 0.140625 C 3.253906 0.140625 2.601562 -0.25 2.1875 -1.03125 L 1.96875 0 Z M 2.703125 -2.53125 C 2.703125 -2.113281 2.816406 -1.773438 3.046875 -1.515625 C 3.285156 -1.253906 3.566406 -1.125 3.890625 -1.125 C 4.171875 -1.125 4.4375 -1.222656 4.6875 -1.421875 C 4.945312 -1.628906 5.160156 -1.957031 5.328125 -2.40625 C 5.503906 -2.851562 5.59375 -3.300781 5.59375 -3.75 C 5.59375 -4.1875 5.476562 -4.53125 5.25 -4.78125 C 5.019531 -5.039062 4.742188 -5.171875 4.421875 -5.171875 C 3.992188 -5.171875 3.628906 -4.972656 3.328125 -4.578125 C 2.910156 -4.046875 2.703125 -3.363281 2.703125 -2.53125 Z M 2.703125 -2.53125 "/>
</g>
<g id="glyph-2-3">
<path d="M 2.28125 -8.59375 L 3.953125 -8.59375 L 3.640625 -7.0625 L 1.953125 -7.0625 Z M 1.78125 -6.21875 L 3.46875 -6.21875 L 2.15625 0 L 0.484375 0 Z M 1.78125 -6.21875 "/>
</g>
<g id="glyph-2-4">
<path d="M 1.734375 -6.21875 L 3.328125 -6.21875 L 3.1875 -5.578125 C 3.53125 -5.859375 3.847656 -6.0625 4.140625 -6.1875 C 4.441406 -6.3125 4.757812 -6.375 5.09375 -6.375 C 5.75 -6.375 6.273438 -6.144531 6.671875 -5.6875 C 7.066406 -5.238281 7.265625 -4.570312 7.265625 -3.6875 C 7.265625 -2.5625 6.921875 -1.613281 6.234375 -0.84375 C 5.648438 -0.1875 4.957031 0.140625 4.15625 0.140625 C 3.332031 0.140625 2.710938 -0.191406 2.296875 -0.859375 L 1.625 2.375 L -0.0625 2.375 Z M 2.75 -2.65625 C 2.75 -2.164062 2.863281 -1.785156 3.09375 -1.515625 C 3.332031 -1.253906 3.613281 -1.125 3.9375 -1.125 C 4.207031 -1.125 4.472656 -1.222656 4.734375 -1.421875 C 4.992188 -1.628906 5.207031 -1.960938 5.375 -2.421875 C 5.539062 -2.890625 5.625 -3.328125 5.625 -3.734375 C 5.625 -4.191406 5.515625 -4.546875 5.296875 -4.796875 C 5.078125 -5.046875 4.796875 -5.171875 4.453125 -5.171875 C 4.128906 -5.171875 3.832031 -5.054688 3.5625 -4.828125 C 3.300781 -4.597656 3.097656 -4.257812 2.953125 -3.8125 C 2.816406 -3.375 2.75 -2.988281 2.75 -2.65625 Z M 2.75 -2.65625 "/>
</g>
<g id="glyph-2-5">
<path d="M 1.421875 -4.9375 L 1.734375 -6.4375 C 3.191406 -7.070312 4.316406 -7.804688 5.109375 -8.640625 L 6.125 -8.640625 L 4.3125 0 L 2.625 0 L 3.875 -5.953125 C 3.519531 -5.722656 3.113281 -5.515625 2.65625 -5.328125 C 2.195312 -5.140625 1.785156 -5.007812 1.421875 -4.9375 Z M 1.421875 -4.9375 "/>
</g>
<g id="glyph-2-6">
<path d="M 1.734375 -6.21875 L 3.3125 -6.21875 L 3.15625 -5.46875 C 3.769531 -6.070312 4.414062 -6.375 5.09375 -6.375 C 5.5625 -6.375 5.921875 -6.273438 6.171875 -6.078125 C 6.429688 -5.878906 6.597656 -5.609375 6.671875 -5.265625 C 6.878906 -5.578125 7.1875 -5.835938 7.59375 -6.046875 C 8 -6.265625 8.414062 -6.375 8.84375 -6.375 C 9.34375 -6.375 9.726562 -6.238281 10 -5.96875 C 10.28125 -5.707031 10.421875 -5.359375 10.421875 -4.921875 C 10.421875 -4.703125 10.367188 -4.328125 10.265625 -3.796875 L 9.46875 0 L 7.78125 0 L 8.578125 -3.796875 C 8.671875 -4.273438 8.71875 -4.546875 8.71875 -4.609375 C 8.71875 -4.785156 8.664062 -4.921875 8.5625 -5.015625 C 8.46875 -5.117188 8.316406 -5.171875 8.109375 -5.171875 C 7.691406 -5.171875 7.316406 -4.945312 6.984375 -4.5 C 6.742188 -4.1875 6.539062 -3.628906 6.375 -2.828125 L 5.78125 0 L 4.109375 0 L 4.890625 -3.765625 C 4.972656 -4.191406 5.015625 -4.472656 5.015625 -4.609375 C 5.015625 -4.773438 4.957031 -4.910156 4.84375 -5.015625 C 4.738281 -5.117188 4.585938 -5.171875 4.390625 -5.171875 C 4.210938 -5.171875 4.023438 -5.113281 3.828125 -5 C 3.628906 -4.894531 3.457031 -4.742188 3.3125 -4.546875 C 3.164062 -4.359375 3.039062 -4.113281 2.9375 -3.8125 C 2.882812 -3.675781 2.804688 -3.359375 2.703125 -2.859375 L 2.109375 0 L 0.421875 0 Z M 1.734375 -6.21875 "/>
</g>
<g id="glyph-2-7">
<path d="M 0.265625 -1.734375 L 1.890625 -2 C 2.035156 -1.65625 2.210938 -1.410156 2.421875 -1.265625 C 2.640625 -1.128906 2.9375 -1.0625 3.3125 -1.0625 C 3.695312 -1.0625 4.003906 -1.144531 4.234375 -1.3125 C 4.390625 -1.425781 4.46875 -1.566406 4.46875 -1.734375 C 4.46875 -1.847656 4.425781 -1.953125 4.34375 -2.046875 C 4.257812 -2.128906 4.03125 -2.234375 3.65625 -2.359375 C 2.632812 -2.691406 2.003906 -2.957031 1.765625 -3.15625 C 1.390625 -3.457031 1.203125 -3.859375 1.203125 -4.359375 C 1.203125 -4.847656 1.382812 -5.269531 1.75 -5.625 C 2.257812 -6.125 3.019531 -6.375 4.03125 -6.375 C 4.832031 -6.375 5.4375 -6.222656 5.84375 -5.921875 C 6.25 -5.628906 6.507812 -5.234375 6.625 -4.734375 L 5.0625 -4.46875 C 4.988281 -4.695312 4.859375 -4.867188 4.671875 -4.984375 C 4.421875 -5.128906 4.117188 -5.203125 3.765625 -5.203125 C 3.410156 -5.203125 3.15625 -5.144531 3 -5.03125 C 2.851562 -4.914062 2.78125 -4.78125 2.78125 -4.625 C 2.78125 -4.46875 2.859375 -4.34375 3.015625 -4.25 C 3.109375 -4.1875 3.421875 -4.078125 3.953125 -3.921875 C 4.773438 -3.679688 5.328125 -3.445312 5.609375 -3.21875 C 5.992188 -2.882812 6.1875 -2.492188 6.1875 -2.046875 C 6.1875 -1.453125 5.9375 -0.9375 5.4375 -0.5 C 4.945312 -0.0703125 4.25 0.140625 3.34375 0.140625 C 2.445312 0.140625 1.753906 -0.0195312 1.265625 -0.34375 C 0.773438 -0.675781 0.441406 -1.140625 0.265625 -1.734375 Z M 0.265625 -1.734375 "/>
</g>
<g id="glyph-2-8">
<path d="M 0.90625 -4.96875 L 1.15625 -6.21875 L 1.984375 -6.21875 L 2.1875 -7.21875 L 4.109375 -8.375 L 3.65625 -6.21875 L 4.6875 -6.21875 L 4.4375 -4.96875 L 3.40625 -4.96875 L 2.859375 -2.375 C 2.753906 -1.894531 2.703125 -1.625 2.703125 -1.5625 C 2.703125 -1.425781 2.742188 -1.320312 2.828125 -1.25 C 2.910156 -1.1875 3.0625 -1.15625 3.28125 -1.15625 C 3.351562 -1.15625 3.535156 -1.164062 3.828125 -1.1875 L 3.5625 0.0625 C 3.28125 0.113281 2.984375 0.140625 2.671875 0.140625 C 2.078125 0.140625 1.644531 0.0234375 1.375 -0.203125 C 1.113281 -0.429688 0.984375 -0.75 0.984375 -1.15625 C 0.984375 -1.34375 1.054688 -1.78125 1.203125 -2.46875 L 1.71875 -4.96875 Z M 0.90625 -4.96875 "/>
</g>
<g id="glyph-2-9">
<path d="M 3.171875 -5.90625 L 1.53125 -6.15625 C 1.65625 -6.957031 1.960938 -7.566406 2.453125 -7.984375 C 2.941406 -8.410156 3.550781 -8.625 4.28125 -8.625 C 5.082031 -8.625 5.707031 -8.40625 6.15625 -7.96875 C 6.613281 -7.539062 6.84375 -6.992188 6.84375 -6.328125 C 6.84375 -5.984375 6.769531 -5.640625 6.625 -5.296875 C 6.488281 -4.953125 6.265625 -4.59375 5.953125 -4.21875 C 5.722656 -3.957031 5.34375 -3.582031 4.8125 -3.09375 C 4.289062 -2.613281 3.941406 -2.28125 3.765625 -2.09375 C 3.597656 -1.914062 3.4375 -1.726562 3.28125 -1.53125 L 6.265625 -1.53125 L 5.953125 0 L 0.734375 0 C 0.785156 -0.425781 0.90625 -0.828125 1.09375 -1.203125 C 1.289062 -1.585938 1.53125 -1.941406 1.8125 -2.265625 C 2.101562 -2.597656 2.632812 -3.128906 3.40625 -3.859375 C 3.988281 -4.410156 4.351562 -4.769531 4.5 -4.9375 C 4.78125 -5.238281 4.96875 -5.5 5.0625 -5.71875 C 5.164062 -5.945312 5.21875 -6.148438 5.21875 -6.328125 C 5.21875 -6.617188 5.132812 -6.851562 4.96875 -7.03125 C 4.800781 -7.21875 4.582031 -7.3125 4.3125 -7.3125 C 4.050781 -7.3125 3.820312 -7.207031 3.625 -7 C 3.425781 -6.800781 3.273438 -6.4375 3.171875 -5.90625 Z M 3.171875 -5.90625 "/>
</g>
</g>
</defs>
<rect x="-72" y="-50.4" width="864" height="604.8" fill="rgb(100%, 100%, 100%)" fill-opacity="1"/>
<g fill="rgb(0%, 0%, 0%)" fill-opacity="1">
<use xlink:href="#glyph-0-1" x="171.199219" y="40.552734"/>
<use xlink:href="#glyph-0-2" x="184.199219" y="40.552734"/>
<use xlink:href="#glyph-0-3" x="194.199219" y="40.552734"/>
<use xlink:href="#glyph-0-4" x="207.199219" y="40.552734"/>
<use xlink:href="#glyph-0-5" x="217.199219" y="40.552734"/>
<use xlink:href="#glyph-0-6" x="223.199219" y="40.552734"/>
<use xlink:href="#glyph-0-7" x="233.199219" y="40.552734"/>
<use xlink:href="#glyph-0-8" x="243.199219" y="40.552734"/>
<use xlink:href="#glyph-0-9" x="253.199219" y="40.552734"/>
<use xlink:href="#glyph-0-10" x="257.199219" y="40.552734"/>
<use xlink:href="#glyph-0-11" x="267.199219" y="40.552734"/>
<use xlink:href="#glyph-0-6" x="272.199219" y="40.552734"/>
<use xlink:href="#glyph-0-12" x="282.199219" y="40.552734"/>
<use xlink:href="#glyph-0-13" x="292.199219" y="40.552734"/>
<use xlink:href="#glyph-0-7" x="297.199219" y="40.552734"/>
<use xlink:href="#glyph-0-6" x="307.199219" y="40.552734"/>
<use xlink:href="#glyph-0-4" x="317.199219" y="40.552734"/>
<use xlink:href="#glyph-0-6" x="327.199219" y="40.552734"/>
<use xlink:href="#glyph-0-14" x="337.199219" y="40.552734"/>
<use xlink:href="#glyph-0-13" x="346.199219" y="40.552734"/>
<use xlink:href="#glyph-0-15" x="351.199219" y="40.552734"/>
<use xlink:href="#glyph-0-4" x="355.199219" y="40.552734"/>
<use xlink:href="#glyph-0-13" x="365.199219" y="40.552734"/>
<use xlink:href="#glyph-0-7" x="370.199219" y="40.552734"/>
<use xlink:href="#glyph-0-8" x="380.199219" y="40.552734"/>
<use xlink:href="#glyph-0-16" x="390.199219" y="40.552734"/>
<use xlink:href="#glyph-0-17" x="399.199219" y="40.552734"/>
<use xlink:href="#glyph-0-17" x="408.199219" y="40.552734"/>
<use xlink:href="#glyph-0-13" x="418.199219" y="40.552734"/>
<use xlink:href="#glyph-0-10" x="423.199219" y="40.552734"/>
<use xlink:href="#glyph-0-11" x="433.199219" y="40.552734"/>
<use xlink:href="#glyph-0-13" x="438.199219" y="40.552734"/>
<use xlink:href="#glyph-0-18" x="443.199219" y="40.552734"/>
<use xlink:href="#glyph-0-19" x="453.199219" y="40.552734"/>
<use xlink:href="#glyph-0-20" x="463.199219" y="40.552734"/>
</g>
<path fill-rule="nonzero" fill="rgb(99.215686%, 75.294118%, 52.54902%)" fill-opacity="1" stroke-width="0.75" stroke-linecap="round" stroke-linejoin="round" stroke="rgb(0%, 0%, 0%)" stroke-opacity="1" stroke-miterlimit="10" d="M 669.300781 257.898438 C 669.300781 263.898438 660.300781 263.898438 660.300781 257.898438 C 660.300781 251.898438 669.300781 251.898438 669.300781 257.898438 "/>
<g fill="rgb(0%, 0%, 0%)" fill-opacity="1">
<use xlink:href="#glyph-1-1" x="678" y="262.261719"/>
<use xlink:href="#glyph-1-2" x="687" y="262.261719"/>
<use xlink:href="#glyph-1-3" x="694" y="262.261719"/>
<use xlink:href="#glyph-1-4" x="697" y="262.261719"/>
<use xlink:href="#glyph-1-5" x="704" y="262.261719"/>
</g>
<path fill-rule="nonzero" fill="rgb(74.509804%, 68.235294%, 83.137255%)" fill-opacity="1" stroke-width="0.75" stroke-linecap="round" stroke-linejoin="round" stroke="rgb(0%, 0%, 0%)" stroke-opacity="1" stroke-miterlimit="10" d="M 669.300781 273.5 C 669.300781 279.5 660.300781 279.5 660.300781 273.5 C 660.300781 267.5 669.300781 267.5 669.300781 273.5 "/>
<g fill="rgb(0%, 0%, 0%)" fill-opacity="1">
<use xlink:href="#glyph-1-1" x="678" y="277.863281"/>
<use xlink:href="#glyph-1-6" x="687" y="277.863281"/>
<use xlink:href="#glyph-1-7" x="697" y="277.863281"/>
<use xlink:href="#glyph-1-8" x="703" y="277.863281"/>
<use xlink:href="#glyph-1-5" x="706" y="277.863281"/>
<use xlink:href="#glyph-1-9" x="713" y="277.863281"/>
</g>
<path fill-rule="nonzero" fill="rgb(99.215686%, 75.294118%, 52.54902%)" fill-opacity="1" d="M 190.753906 446.097656 L 196.449219 445.882812 L 202.132812 445.488281 L 207.800781 444.914062 L 213.445312 444.160156 L 219.066406 443.226562 L 224.65625 442.121094 L 230.207031 440.835938 L 235.710938 439.375 L 241.171875 437.746094 L 246.574219 435.941406 L 251.917969 433.96875 L 257.199219 431.828125 L 262.410156 429.519531 L 267.542969 427.050781 L 272.597656 424.421875 L 277.5625 421.632812 L 282.441406 418.6875 L 287.222656 415.589844 L 288.417969 414.761719 L 288.058594 414.429688 L 283.433594 409.828125 L 278.957031 405.082031 L 274.632812 400.199219 L 270.46875 395.179688 L 266.460938 390.03125 L 262.617188 384.761719 L 258.941406 379.371094 L 255.441406 373.867188 L 252.113281 368.257812 L 248.964844 362.542969 L 246 356.734375 L 243.21875 350.832031 L 240.625 344.847656 L 238.21875 338.785156 L 236.007812 332.648438 L 233.992188 326.441406 L 232.175781 320.179688 L 230.554688 313.859375 L 229.132812 307.492188 L 227.914062 301.085938 L 226.898438 294.640625 L 226.085938 288.167969 L 225.480469 281.671875 L 225.078125 275.164062 L 224.882812 268.644531 L 224.894531 262.121094 L 225.109375 255.601562 L 225.53125 249.089844 L 226.15625 242.597656 L 226.988281 236.128906 L 228.023438 229.6875 L 229.261719 223.28125 L 230.703125 216.921875 L 232.34375 210.605469 L 234.183594 204.347656 L 236.21875 198.148438 L 238.445312 192.019531 L 240.867188 185.964844 L 243.480469 179.984375 L 246.28125 174.09375 L 249.265625 168.292969 L 252.429688 162.589844 L 255.773438 156.988281 L 259.292969 151.496094 L 262.984375 146.117188 L 266.84375 140.859375 L 270.867188 135.722656 L 275.050781 130.71875 L 279.390625 125.847656 L 283.878906 121.117188 L 288.417969 116.628906 L 287.683594 116.121094 L 282.914062 113.007812 L 278.042969 110.050781 L 273.085938 107.246094 L 268.039062 104.597656 L 262.914062 102.113281 L 257.710938 99.789062 L 252.4375 97.632812 L 247.101562 95.644531 L 241.703125 93.824219 L 236.25 92.175781 L 230.746094 90.699219 L 225.199219 89.398438 L 219.613281 88.273438 L 213.996094 87.324219 L 208.351562 86.554688 L 202.6875 85.960938 L 197.003906 85.546875 L 191.3125 85.3125 L 185.617188 85.261719 L 179.917969 85.386719 L 174.230469 85.691406 L 168.554688 86.175781 L 162.898438 86.839844 L 157.261719 87.683594 L 151.65625 88.703125 L 146.085938 89.898438 L 140.558594 91.273438 L 135.074219 92.816406 L 129.640625 94.535156 L 124.265625 96.421875 L 118.953125 98.480469 L 113.710938 100.703125 L 108.539062 103.09375 L 103.441406 105.644531 L 98.433594 108.355469 L 93.507812 111.21875 L 88.679688 114.242188 L 83.945312 117.414062 L 79.316406 120.734375 L 74.792969 124.195312 L 70.382812 127.800781 L 66.085938 131.546875 L 61.910156 135.421875 L 57.863281 139.425781 L 53.9375 143.558594 L 50.148438 147.8125 L 46.496094 152.183594 L 42.984375 156.667969 L 39.613281 161.261719 L 36.390625 165.960938 L 33.316406 170.757812 L 30.394531 175.648438 L 27.628906 180.628906 L 25.023438 185.695312 L 22.578125 190.839844 L 20.296875 196.0625 L 18.179688 201.351562 L 16.234375 206.703125 L 14.457031 212.117188 L 12.851562 217.582031 L 11.417969 223.097656 L 10.160156 228.65625 L 9.078125 234.246094 L 8.175781 239.871094 L 7.449219 245.523438 L 6.902344 251.195312 L 6.535156 256.878906 L 6.34375 262.574219 L 6.335938 268.269531 L 6.507812 273.964844 L 6.859375 279.652344 L 7.386719 285.324219 L 8.097656 290.976562 L 8.984375 296.601562 L 10.046875 302.199219 L 11.289062 307.761719 L 12.703125 313.277344 L 14.292969 318.75 L 16.054688 324.167969 L 17.984375 329.527344 L 20.082031 334.824219 L 22.347656 340.050781 L 24.777344 345.203125 L 27.367188 350.277344 L 30.117188 355.269531 L 33.023438 360.167969 L 36.082031 364.976562 L 39.289062 369.683594 L 42.648438 374.285156 L 46.148438 378.78125 L 49.785156 383.164062 L 53.5625 387.429688 L 57.472656 391.574219 L 61.511719 395.59375 L 65.671875 399.480469 L 69.957031 403.238281 L 74.355469 406.855469 L 78.867188 410.335938 L 83.488281 413.667969 L 88.210938 416.855469 L 93.03125 419.890625 L 97.945312 422.773438 L 102.949219 425.5 L 108.035156 428.0625 L 113.199219 430.46875 L 118.4375 432.707031 L 123.746094 434.78125 L 129.113281 436.6875 L 134.539062 438.421875 L 140.019531 439.984375 L 145.542969 441.375 L 151.109375 442.585938 L 156.710938 443.625 L 162.34375 444.484375 L 168 445.164062 L 173.675781 445.667969 L 179.363281 445.992188 L 185.058594 446.136719 Z M 190.753906 446.097656 "/>
<path fill-rule="nonzero" fill="rgb(74.509804%, 68.235294%, 83.137255%)" fill-opacity="1" d="M 436.046875 472.257812 L 442.5625 472.011719 L 449.070312 471.558594 L 455.5625 470.902344 L 462.027344 470.039062 L 468.460938 468.972656 L 474.863281 467.703125 L 481.214844 466.230469 L 487.523438 464.5625 L 493.773438 462.695312 L 499.960938 460.628906 L 506.078125 458.371094 L 512.125 455.917969 L 518.089844 453.277344 L 523.96875 450.449219 L 529.753906 447.4375 L 535.441406 444.242188 L 541.027344 440.871094 L 546.5 437.328125 L 551.863281 433.609375 L 557.101562 429.726562 L 562.21875 425.679688 L 567.203125 421.472656 L 572.054688 417.109375 L 576.761719 412.59375 L 581.328125 407.933594 L 585.742188 403.132812 L 590.003906 398.195312 L 594.109375 393.125 L 598.050781 387.925781 L 601.824219 382.605469 L 605.433594 377.171875 L 608.863281 371.625 L 612.121094 365.972656 L 615.195312 360.21875 L 618.085938 354.371094 L 620.792969 348.4375 L 623.3125 342.417969 L 625.636719 336.324219 L 627.769531 330.160156 L 629.707031 323.929688 L 631.445312 317.644531 L 632.988281 311.304688 L 634.324219 304.921875 L 635.460938 298.496094 L 636.394531 292.039062 L 637.125 285.558594 L 637.648438 279.054688 L 637.96875 272.542969 L 638.082031 266.019531 L 637.988281 259.496094 L 637.691406 252.980469 L 637.1875 246.476562 L 636.476562 239.992188 L 635.5625 233.53125 L 634.445312 227.105469 L 633.125 220.71875 L 631.605469 214.375 L 629.886719 208.082031 L 627.96875 201.847656 L 625.855469 195.675781 L 623.546875 189.574219 L 621.046875 183.546875 L 618.359375 177.605469 L 615.484375 171.75 L 612.429688 165.988281 L 609.191406 160.324219 L 605.773438 154.765625 L 602.1875 149.320312 L 598.425781 143.988281 L 594.5 138.777344 L 590.414062 133.695312 L 586.167969 128.742188 L 581.765625 123.929688 L 577.214844 119.253906 L 572.519531 114.726562 L 567.683594 110.347656 L 562.710938 106.125 L 557.609375 102.0625 L 552.378906 98.164062 L 547.03125 94.429688 L 541.566406 90.867188 L 535.992188 87.476562 L 530.3125 84.265625 L 524.539062 81.238281 L 518.667969 78.390625 L 512.710938 75.730469 L 506.675781 73.261719 L 500.5625 70.984375 L 494.378906 68.898438 L 488.136719 67.011719 L 481.835938 65.320312 L 475.484375 63.832031 L 469.089844 62.542969 L 462.65625 61.457031 L 456.195312 60.574219 L 449.707031 59.894531 L 443.199219 59.421875 L 436.683594 59.15625 L 430.160156 59.09375 L 423.640625 59.238281 L 417.125 59.589844 L 410.625 60.144531 L 404.148438 60.90625 L 397.695312 61.871094 L 391.277344 63.039062 L 384.898438 64.40625 L 378.570312 65.976562 L 372.289062 67.746094 L 366.070312 69.714844 L 359.914062 71.875 L 353.832031 74.234375 L 347.828125 76.777344 L 341.90625 79.511719 L 336.070312 82.433594 L 330.335938 85.535156 L 324.695312 88.820312 L 319.167969 92.277344 L 313.746094 95.910156 L 308.445312 99.710938 L 303.269531 103.675781 L 298.214844 107.804688 L 293.296875 112.089844 L 288.519531 116.53125 L 288.417969 116.628906 L 292.355469 119.378906 L 296.921875 122.785156 L 301.378906 126.335938 L 305.722656 130.023438 L 309.945312 133.847656 L 314.046875 137.800781 L 318.019531 141.882812 L 321.863281 146.089844 L 325.574219 150.414062 L 329.144531 154.851562 L 332.570312 159.402344 L 335.855469 164.058594 L 338.988281 168.816406 L 341.972656 173.667969 L 344.800781 178.617188 L 347.46875 183.648438 L 349.980469 188.761719 L 352.328125 193.953125 L 354.511719 199.214844 L 356.527344 204.542969 L 358.371094 209.933594 L 360.046875 215.378906 L 361.546875 220.875 L 362.875 226.414062 L 364.027344 231.992188 L 365.003906 237.605469 L 365.800781 243.246094 L 366.421875 248.910156 L 366.863281 254.589844 L 367.125 260.28125 L 367.203125 265.976562 L 367.105469 271.675781 L 366.828125 277.363281 L 366.371094 283.042969 L 365.734375 288.703125 L 364.917969 294.34375 L 363.925781 299.953125 L 362.753906 305.527344 L 361.410156 311.066406 L 359.890625 316.554688 L 358.199219 321.996094 L 356.335938 327.378906 L 354.304688 332.703125 L 352.105469 337.957031 L 349.742188 343.140625 L 347.214844 348.246094 L 344.53125 353.273438 L 341.6875 358.210938 L 338.691406 363.054688 L 335.539062 367.800781 L 332.242188 372.445312 L 328.800781 376.988281 L 325.21875 381.414062 L 321.496094 385.726562 L 317.636719 389.921875 L 313.652344 393.992188 L 309.539062 397.933594 L 305.304688 401.742188 L 300.949219 405.417969 L 296.480469 408.953125 L 291.90625 412.34375 L 288.417969 414.761719 L 292.824219 418.882812 L 297.730469 423.183594 L 302.769531 427.324219 L 307.933594 431.308594 L 313.222656 435.125 L 318.632812 438.773438 L 324.152344 442.25 L 329.777344 445.550781 L 335.507812 448.671875 L 341.332031 451.609375 L 347.246094 454.363281 L 353.242188 456.925781 L 359.316406 459.300781 L 365.464844 461.484375 L 371.679688 463.46875 L 377.953125 465.257812 L 384.277344 466.847656 L 390.652344 468.238281 L 397.066406 469.425781 L 403.515625 470.410156 L 409.992188 471.191406 L 416.488281 471.765625 L 423 472.136719 L 429.523438 472.300781 Z M 436.046875 472.257812 "/>
<path fill-rule="nonzero" fill="rgb(100%, 100%, 60%)" fill-opacity="1" d="M 291.90625 412.34375 L 296.480469 408.953125 L 300.949219 405.417969 L 305.304688 401.742188 L 309.539062 397.933594 L 313.652344 393.992188 L 317.636719 389.921875 L 321.496094 385.726562 L 325.21875 381.414062 L 328.800781 376.988281 L 332.242188 372.445312 L 335.539062 367.800781 L 338.691406 363.054688 L 341.6875 358.210938 L 344.53125 353.273438 L 347.214844 348.246094 L 349.742188 343.140625 L 352.105469 337.957031 L 354.304688 332.703125 L 356.335938 327.378906 L 358.199219 321.996094 L 359.890625 316.554688 L 361.410156 311.066406 L 362.753906 305.527344 L 363.925781 299.953125 L 364.917969 294.34375 L 365.734375 288.703125 L 366.371094 283.042969 L 366.828125 277.363281 L 367.105469 271.675781 L 367.203125 265.976562 L 367.125 260.28125 L 366.863281 254.589844 L 366.421875 248.910156 L 365.800781 243.246094 L 365.003906 237.605469 L 364.027344 231.992188 L 362.875 226.414062 L 361.546875 220.875 L 360.046875 215.378906 L 358.371094 209.933594 L 356.527344 204.542969 L 354.511719 199.214844 L 352.328125 193.953125 L 349.980469 188.761719 L 347.46875 183.648438 L 344.800781 178.617188 L 341.972656 173.667969 L 338.988281 168.816406 L 335.855469 164.058594 L 332.570312 159.402344 L 329.144531 154.851562 L 325.574219 150.414062 L 321.863281 146.089844 L 318.019531 141.882812 L 314.046875 137.800781 L 309.945312 133.847656 L 305.722656 130.023438 L 301.378906 126.335938 L 296.921875 122.785156 L 292.355469 119.378906 L 288.417969 116.628906 L 283.878906 121.117188 L 279.390625 125.847656 L 275.050781 130.71875 L 270.867188 135.722656 L 266.84375 140.859375 L 262.984375 146.117188 L 259.292969 151.496094 L 255.773438 156.988281 L 252.429688 162.589844 L 249.265625 168.292969 L 246.28125 174.09375 L 243.480469 179.984375 L 240.867188 185.964844 L 238.445312 192.019531 L 236.21875 198.148438 L 234.183594 204.347656 L 232.34375 210.605469 L 230.703125 216.921875 L 229.261719 223.28125 L 228.023438 229.6875 L 226.988281 236.128906 L 226.15625 242.597656 L 225.53125 249.089844 L 225.109375 255.601562 L 224.894531 262.121094 L 224.882812 268.644531 L 225.078125 275.164062 L 225.480469 281.671875 L 226.085938 288.167969 L 226.898438 294.640625 L 227.914062 301.085938 L 229.132812 307.492188 L 230.554688 313.859375 L 232.175781 320.179688 L 233.992188 326.441406 L 236.007812 332.648438 L 238.21875 338.785156 L 240.625 344.847656 L 243.21875 350.832031 L 246 356.734375 L 248.964844 362.542969 L 252.113281 368.257812 L 255.441406 373.867188 L 258.941406 379.371094 L 262.617188 384.761719 L 266.460938 390.03125 L 270.46875 395.179688 L 274.632812 400.199219 L 278.957031 405.082031 L 283.433594 409.828125 L 288.058594 414.429688 L 288.417969 414.761719 Z M 291.90625 412.34375 "/>
<path fill="none" stroke-width="0.75" stroke-linecap="round" stroke-linejoin="round" stroke="rgb(0%, 0%, 0%)" stroke-opacity="1" stroke-miterlimit="10" d="M 46.148438 378.78125 L 49.785156 383.164062 L 53.5625 387.429688 L 57.472656 391.574219 L 61.511719 395.59375 L 65.671875 399.480469 L 69.957031 403.238281 L 74.355469 406.855469 L 78.867188 410.335938 L 83.488281 413.667969 L 88.210938 416.855469 L 93.03125 419.890625 L 97.945312 422.773438 L 102.949219 425.5 L 108.035156 428.0625 L 113.199219 430.46875 L 118.4375 432.707031 L 123.746094 434.78125 L 129.113281 436.6875 L 134.539062 438.421875 L 140.019531 439.984375 L 145.542969 441.375 L 151.109375 442.585938 L 156.710938 443.625 L 162.34375 444.484375 L 168 445.164062 L 173.675781 445.667969 L 179.363281 445.992188 L 185.058594 446.136719 L 190.753906 446.097656 L 196.449219 445.882812 L 202.132812 445.488281 L 207.800781 444.914062 L 213.445312 444.160156 L 219.066406 443.226562 L 224.65625 442.121094 L 230.207031 440.835938 L 235.710938 439.375 L 241.171875 437.746094 L 246.574219 435.941406 L 251.917969 433.96875 L 257.199219 431.828125 L 262.410156 429.519531 L 267.542969 427.050781 L 272.597656 424.421875 L 277.5625 421.632812 L 282.441406 418.6875 L 287.222656 415.589844 L 291.90625 412.34375 L 296.480469 408.953125 L 300.949219 405.417969 L 305.304688 401.742188 L 309.539062 397.933594 L 313.652344 393.992188 L 317.636719 389.921875 L 321.496094 385.726562 L 325.21875 381.414062 L 328.800781 376.988281 L 332.242188 372.445312 L 335.539062 367.800781 L 338.691406 363.054688 L 341.6875 358.210938 L 344.53125 353.273438 L 347.214844 348.246094 L 349.742188 343.140625 L 352.105469 337.957031 L 354.304688 332.703125 L 356.335938 327.378906 L 358.199219 321.996094 L 359.890625 316.554688 L 361.410156 311.066406 L 362.753906 305.527344 L 363.925781 299.953125 L 364.917969 294.34375 L 365.734375 288.703125 L 366.371094 283.042969 L 366.828125 277.363281 L 367.105469 271.675781 L 367.203125 265.976562 L 367.125 260.28125 L 366.863281 254.589844 L 366.421875 248.910156 L 365.800781 243.246094 L 365.003906 237.605469 L 364.027344 231.992188 L 362.875 226.414062 L 361.546875 220.875 L 360.046875 215.378906 L 358.371094 209.933594 L 356.527344 204.542969 L 354.511719 199.214844 L 352.328125 193.953125 L 349.980469 188.761719 L 347.46875 183.648438 L 344.800781 178.617188 L 341.972656 173.667969 L 338.988281 168.816406 L 335.855469 164.058594 L 332.570312 159.402344 L 329.144531 154.851562 L 325.574219 150.414062 L 321.863281 146.089844 L 318.019531 141.882812 L 314.046875 137.800781 L 309.945312 133.847656 L 305.722656 130.023438 L 301.378906 126.335938 L 296.921875 122.785156 L 292.355469 119.378906 L 287.683594 116.121094 L 282.914062 113.007812 L 278.042969 110.050781 L 273.085938 107.246094 L 268.039062 104.597656 L 262.914062 102.113281 L 257.710938 99.789062 L 252.4375 97.632812 L 247.101562 95.644531 L 241.703125 93.824219 L 236.25 92.175781 L 230.746094 90.699219 L 225.199219 89.398438 L 219.613281 88.273438 L 213.996094 87.324219 L 208.351562 86.554688 L 202.6875 85.960938 L 197.003906 85.546875 L 191.3125 85.3125 L 185.617188 85.261719 L 179.917969 85.386719 L 174.230469 85.691406 L 168.554688 86.175781 L 162.894531 86.839844 L 157.261719 87.683594 L 151.65625 88.703125 L 146.085938 89.898438 L 140.558594 91.273438 L 135.074219 92.816406 L 129.640625 94.535156 L 124.265625 96.421875 L 118.953125 98.480469 L 113.710938 100.703125 L 108.539062 103.09375 L 103.441406 105.644531 L 98.433594 108.355469 L 93.507812 111.21875 L 88.679688 114.242188 L 83.945312 117.414062 L 79.316406 120.734375 L 74.792969 124.195312 L 70.382812 127.800781 L 66.085938 131.546875 L 61.910156 135.421875 L 57.863281 139.425781 L 53.9375 143.558594 L 50.148438 147.8125 L 46.496094 152.183594 L 42.984375 156.667969 L 39.613281 161.261719 L 36.390625 165.960938 L 33.316406 170.757812 L 30.394531 175.648438 L 27.628906 180.628906 L 25.023438 185.695312 L 22.578125 190.839844 L 20.296875 196.0625 L 18.179688 201.351562 L 16.234375 206.703125 L 14.457031 212.117188 L 12.851562 217.582031 L 11.417969 223.097656 L 10.160156 228.65625 L 9.078125 234.246094 L 8.175781 239.871094 L 7.449219 245.523438 L 6.902344 251.195312 L 6.535156 256.878906 L 6.34375 262.574219 L 6.335938 268.269531 L 6.507812 273.964844 L 6.859375 279.652344 L 7.386719 285.324219 L 8.097656 290.976562 L 8.984375 296.601562 L 10.046875 302.199219 L 11.289062 307.761719 L 12.703125 313.277344 L 14.292969 318.75 L 16.054688 324.167969 L 17.984375 329.527344 L 20.082031 334.824219 L 22.347656 340.050781 L 24.777344 345.203125 L 27.367188 350.277344 L 30.117188 355.269531 L 33.023438 360.167969 L 36.082031 364.976562 L 39.289062 369.683594 L 42.648438 374.285156 L 46.148438 378.78125 "/>
<path fill="none" stroke-width="0.75" stroke-linecap="round" stroke-linejoin="round" stroke="rgb(0%, 0%, 0%)" stroke-opacity="1" stroke-dasharray="3 3" stroke-miterlimit="10" d="M 270.46875 395.179688 L 274.632812 400.199219 L 278.957031 405.082031 L 283.433594 409.828125 L 288.058594 414.429688 L 292.824219 418.882812 L 297.730469 423.183594 L 302.769531 427.324219 L 307.933594 431.308594 L 313.222656 435.125 L 318.632812 438.773438 L 324.152344 442.25 L 329.777344 445.550781 L 335.507812 448.671875 L 341.332031 451.609375 L 347.246094 454.363281 L 353.242188 456.925781 L 359.316406 459.300781 L 365.464844 461.484375 L 371.679688 463.46875 L 377.953125 465.257812 L 384.277344 466.847656 L 390.652344 468.238281 L 397.066406 469.425781 L 403.515625 470.410156 L 409.992188 471.191406 L 416.488281 471.765625 L 423 472.136719 L 429.523438 472.300781 L 436.046875 472.257812 L 442.5625 472.011719 L 449.070312 471.558594 L 455.5625 470.902344 L 462.027344 470.039062 L 468.460938 468.972656 L 474.863281 467.703125 L 481.214844 466.230469 L 487.523438 464.5625 L 493.773438 462.695312 L 499.960938 460.628906 L 506.078125 458.371094 L 512.125 455.917969 L 518.089844 453.277344 L 523.96875 450.449219 L 529.753906 447.4375 L 535.441406 444.242188 L 541.027344 440.871094 L 546.5 437.328125 L 551.863281 433.609375 L 557.101562 429.726562 L 562.21875 425.679688 L 567.203125 421.472656 L 572.054688 417.109375 L 576.761719 412.59375 L 581.328125 407.933594 L 585.742188 403.132812 L 590.003906 398.195312 L 594.109375 393.125 L 598.050781 387.925781 L 601.824219 382.605469 L 605.433594 377.171875 L 608.863281 371.625 L 612.121094 365.972656 L 615.195312 360.21875 L 618.085938 354.371094 L 620.792969 348.4375 L 623.3125 342.417969 L 625.636719 336.324219 L 627.769531 330.160156 L 629.707031 323.929688 L 631.445312 317.644531 L 632.988281 311.304688 L 634.324219 304.921875 L 635.460938 298.496094 L 636.394531 292.039062 L 637.125 285.558594 L 637.648438 279.054688 L 637.96875 272.542969 L 638.082031 266.019531 L 637.988281 259.496094 L 637.691406 252.980469 L 637.1875 246.476562 L 636.476562 239.992188 L 635.5625 233.53125 L 634.445312 227.105469 L 633.125 220.71875 L 631.605469 214.375 L 629.886719 208.082031 L 627.96875 201.847656 L 625.855469 195.675781 L 623.546875 189.574219 L 621.046875 183.546875 L 618.359375 177.605469 L 615.484375 171.75 L 612.429688 165.988281 L 609.191406 160.324219 L 605.773438 154.765625 L 602.1875 149.320312 L 598.425781 143.988281 L 594.5 138.777344 L 590.414062 133.695312 L 586.167969 128.742188 L 581.765625 123.929688 L 577.214844 119.253906 L 572.519531 114.726562 L 567.683594 110.347656 L 562.710938 106.125 L 557.609375 102.0625 L 552.378906 98.164062 L 547.03125 94.429688 L 541.566406 90.867188 L 535.992188 87.476562 L 530.3125 84.265625 L 524.539062 81.238281 L 518.667969 78.390625 L 512.710938 75.730469 L 506.675781 73.261719 L 500.5625 70.984375 L 494.378906 68.898438 L 488.136719 67.011719 L 481.835938 65.320312 L 475.484375 63.832031 L 469.089844 62.542969 L 462.65625 61.457031 L 456.195312 60.574219 L 449.707031 59.894531 L 443.199219 59.421875 L 436.683594 59.15625 L 430.160156 59.09375 L 423.640625 59.238281 L 417.125 59.589844 L 410.625 60.144531 L 404.148438 60.90625 L 397.695312 61.871094 L 391.277344 63.039062 L 384.898438 64.40625 L 378.570312 65.976562 L 372.289062 67.746094 L 366.070312 69.714844 L 359.914062 71.875 L 353.832031 74.234375 L 347.828125 76.777344 L 341.90625 79.511719 L 336.070312 82.433594 L 330.335938 85.535156 L 324.695312 88.820312 L 319.167969 92.277344 L 313.746094 95.910156 L 308.445312 99.710938 L 303.269531 103.675781 L 298.214844 107.804688 L 293.296875 112.089844 L 288.519531 116.53125 L 283.878906 121.117188 L 279.390625 125.847656 L 275.050781 130.71875 L 270.867188 135.722656 L 266.84375 140.859375 L 262.984375 146.117188 L 259.292969 151.496094 L 255.773438 156.988281 L 252.429688 162.589844 L 249.265625 168.292969 L 246.28125 174.09375 L 243.480469 179.984375 L 240.867188 185.964844 L 238.445312 192.019531 L 236.21875 198.148438 L 234.183594 204.347656 L 232.34375 210.605469 L 230.703125 216.921875 L 229.261719 223.28125 L 228.023438 229.6875 L 226.988281 236.128906 L 226.15625 242.597656 L 225.53125 249.089844 L 225.109375 255.601562 L 224.894531 262.121094 L 224.882812 268.644531 L 225.078125 275.164062 L 225.480469 281.671875 L 226.085938 288.167969 L 226.898438 294.640625 L 227.914062 301.085938 L 229.132812 307.492188 L 230.554688 313.859375 L 232.175781 320.179688 L 233.992188 326.441406 L 236.007812 332.648438 L 238.21875 338.785156 L 240.625 344.847656 L 243.21875 350.832031 L 246 356.734375 L 248.964844 362.542969 L 252.113281 368.257812 L 255.441406 373.867188 L 258.941406 379.371094 L 262.617188 384.761719 L 266.460938 390.03125 L 270.46875 395.179688 "/>
<g fill="rgb(0%, 0%, 0%)" fill-opacity="1">
<use xlink:href="#glyph-2-1" x="100.023438" y="246.214844"/>
<use xlink:href="#glyph-2-2" x="109.023438" y="246.214844"/>
<use xlink:href="#glyph-2-3" x="116.023438" y="246.214844"/>
<use xlink:href="#glyph-2-4" x="119.023438" y="246.214844"/>
<use xlink:href="#glyph-2-5" x="126.023438" y="246.214844"/>
</g>
<g fill="rgb(0%, 0%, 0%)" fill-opacity="1">
<use xlink:href="#glyph-1-10" x="106.023438" y="260.976562"/>
<use xlink:href="#glyph-1-9" x="113.023438" y="260.976562"/>
<use xlink:href="#glyph-1-5" x="120.023438" y="260.976562"/>
</g>
<g fill="rgb(0%, 0%, 0%)" fill-opacity="1">
<use xlink:href="#glyph-2-1" x="478.992188" y="270.679688"/>
<use xlink:href="#glyph-2-6" x="487.992188" y="270.679688"/>
<use xlink:href="#glyph-2-7" x="498.992188" y="270.679688"/>
<use xlink:href="#glyph-2-8" x="505.992188" y="270.679688"/>
<use xlink:href="#glyph-2-5" x="509.992188" y="270.679688"/>
<use xlink:href="#glyph-2-9" x="516.992188" y="270.679688"/>
</g>
<g fill="rgb(0%, 0%, 0%)" fill-opacity="1">
<use xlink:href="#glyph-1-11" x="490.992188" y="285.441406"/>
<use xlink:href="#glyph-1-12" x="497.992188" y="285.441406"/>
<use xlink:href="#glyph-1-13" x="504.992188" y="285.441406"/>
</g>
<g fill="rgb(0%, 0%, 0%)" fill-opacity="1">
<use xlink:href="#glyph-1-9" x="285.542969" y="270.058594"/>
<use xlink:href="#glyph-1-5" x="292.542969" y="270.058594"/>
<use xlink:href="#glyph-1-9" x="299.542969" y="270.058594"/>
</g>
</svg>
